<?xml version="1.0" encoding="UTF-8"?>
<svg id="Layer_2" xmlns="http://www.w3.org/2000/svg" xmlns:xlink="http://www.w3.org/1999/xlink" version="1.1" viewBox="0 0 101.5 89.6">
  <!-- Generator: Adobe Illustrator 29.2.1, SVG Export Plug-In . SVG Version: 2.1.0 Build 116)  -->
  <defs>
    <style>
      .st0, .st1, .st2, .st3, .st4, .st5, .st6, .st7, .st8, .st9, .st10, .st11, .st12, .st13, .st14, .st15, .st16, .st17, .st18, .st19, .st20, .st21, .st22, .st23, .st24, .st25, .st26, .st27, .st28, .st29, .st30, .st31, .st32, .st33, .st34, .st35, .st36, .st37, .st38, .st39, .st40, .st41, .st42, .st43, .st44, .st45, .st46, .st47, .st48, .st49, .st50, .st51, .st52, .st53, .st54, .st55, .st56, .st57, .st58, .st59, .st60, .st61, .st62, .st63, .st64, .st65, .st66, .st67, .st68, .st69, .st70, .st71, .st72, .st73, .st74, .st75, .st76, .st77, .st78, .st79, .st80, .st81, .st82, .st83, .st84, .st85, .st86, .st87, .st88, .st89, .st90, .st91, .st92, .st93, .st94, .st95, .st96, .st97, .st98, .st99, .st100, .st101, .st102, .st103, .st104, .st105, .st106, .st107, .st108, .st109, .st110, .st111, .st112, .st113, .st114, .st115, .st116, .st117, .st118, .st119, .st120, .st121, .st122, .st123, .st124, .st125, .st126, .st127, .st128, .st129, .st130, .st131, .st132, .st133, .st134, .st135, .st136, .st137, .st138, .st139, .st140, .st141, .st142, .st143, .st144, .st145, .st146, .st147, .st148, .st149, .st150, .st151, .st152, .st153, .st154, .st155, .st156, .st157, .st158, .st159, .st160, .st161, .st162, .st163, .st164, .st165, .st166, .st167, .st168, .st169, .st170, .st171, .st172, .st173, .st174, .st175, .st176, .st177, .st178, .st179, .st180, .st181, .st182, .st183, .st184, .st185, .st186, .st187, .st188, .st189, .st190, .st191, .st192, .st193, .st194, .st195, .st196, .st197, .st198, .st199, .st200, .st201, .st202, .st203, .st204, .st205, .st206, .st207, .st208, .st209, .st210, .st211, .st212, .st213, .st214, .st215, .st216, .st217, .st218, .st219, .st220, .st221, .st222, .st223, .st224, .st225, .st226, .st227, .st228, .st229, .st230, .st231, .st232, .st233, .st234, .st235, .st236, .st237, .st238, .st239, .st240, .st241, .st242, .st243, .st244, .st245, .st246, .st247, .st248, .st249, .st250, .st251, .st252, .st253, .st254, .st255, .st256, .st257, .st258, .st259, .st260, .st261, .st262, .st263, .st264, .st265, .st266, .st267, .st268, .st269, .st270, .st271, .st272, .st273, .st274, .st275, .st276, .st277, .st278, .st279, .st280, .st281, .st282, .st283, .st284, .st285, .st286, .st287, .st288, .st289, .st290, .st291, .st292, .st293, .st294, .st295, .st296, .st297, .st298, .st299, .st300, .st301, .st302, .st303, .st304, .st305, .st306, .st307, .st308, .st309, .st310, .st311, .st312, .st313, .st314, .st315, .st316, .st317, .st318, .st319, .st320, .st321, .st322, .st323, .st324, .st325, .st326, .st327, .st328, .st329, .st330, .st331, .st332, .st333, .st334, .st335, .st336, .st337, .st338, .st339, .st340, .st341, .st342, .st343, .st344, .st345, .st346, .st347, .st348, .st349, .st350, .st351, .st352, .st353, .st354, .st355, .st356, .st357, .st358, .st359, .st360, .st361, .st362, .st363, .st364, .st365, .st366, .st367, .st368, .st369, .st370, .st371, .st372, .st373, .st374, .st375, .st376, .st377, .st378, .st379, .st380, .st381, .st382, .st383, .st384, .st385, .st386, .st387, .st388, .st389, .st390, .st391, .st392, .st393, .st394, .st395, .st396, .st397, .st398, .st399, .st400, .st401, .st402, .st403, .st404, .st405, .st406, .st407, .st408, .st409, .st410, .st411, .st412, .st413, .st414, .st415, .st416, .st417, .st418, .st419, .st420, .st421, .st422, .st423, .st424, .st425, .st426, .st427, .st428, .st429, .st430, .st431, .st432, .st433, .st434, .st435, .st436, .st437, .st438, .st439, .st440, .st441, .st442, .st443, .st444, .st445, .st446, .st447, .st448, .st449, .st450, .st451, .st452, .st453, .st454, .st455, .st456, .st457, .st458, .st459, .st460, .st461, .st462, .st463, .st464, .st465, .st466, .st467, .st468, .st469, .st470, .st471 {
        fill: none;
      }

      .st1 {
        stroke: #407bb7;
      }

      .st1, .st2, .st3, .st4, .st5, .st6, .st7, .st8, .st9, .st10, .st11, .st12, .st13, .st14, .st15, .st16, .st17, .st18, .st19, .st20, .st21, .st22, .st23, .st24, .st25, .st26, .st27, .st28, .st29, .st30, .st31, .st32, .st33, .st34, .st35, .st36, .st37, .st38, .st39, .st40, .st41, .st42, .st43, .st44, .st45, .st46, .st47, .st48, .st49, .st50, .st51, .st52, .st53, .st54, .st55, .st56, .st57, .st58, .st59, .st60, .st61, .st62, .st63, .st64, .st65, .st66, .st67, .st68, .st69, .st70, .st71, .st72, .st73, .st74, .st75, .st76, .st77, .st78, .st79, .st80, .st81, .st82, .st83, .st84, .st85, .st86, .st87, .st88, .st89, .st90, .st91, .st92, .st93, .st94, .st95, .st96, .st97, .st98, .st99, .st100, .st101, .st102, .st103, .st104, .st105, .st106, .st107, .st108, .st109, .st110, .st111, .st112, .st113, .st114, .st115, .st116, .st117, .st118, .st119, .st120, .st121, .st122, .st123, .st124, .st125, .st126, .st127, .st128, .st129, .st130, .st131, .st132, .st133, .st134, .st135, .st136, .st137, .st138, .st139, .st140, .st141, .st142, .st143, .st144, .st145, .st146, .st147, .st148, .st149, .st150, .st151, .st152, .st153, .st154, .st155, .st156, .st157, .st158, .st159, .st160, .st161, .st162, .st163, .st164, .st165, .st166, .st167, .st168, .st169, .st170, .st171, .st172, .st173, .st174, .st175, .st176, .st177, .st178, .st179, .st180, .st181, .st182, .st183, .st184, .st185, .st186, .st187, .st188, .st189, .st190, .st191, .st192, .st193, .st194, .st195, .st196, .st197, .st198, .st199, .st200, .st201, .st202, .st203, .st204, .st205, .st206, .st207, .st208, .st209, .st210, .st211, .st212, .st213, .st214, .st215, .st216, .st217, .st218, .st219, .st220, .st221, .st222, .st223, .st224, .st225, .st226, .st227, .st228, .st229, .st230, .st231, .st232, .st233, .st234, .st235, .st236, .st237, .st238, .st239, .st240, .st241, .st242, .st243, .st244, .st245, .st246, .st247, .st248, .st249, .st250, .st251, .st252, .st253, .st254, .st255, .st256, .st257, .st258, .st259, .st260, .st261, .st262, .st263, .st264, .st265, .st266, .st267, .st268, .st269, .st270, .st271, .st272, .st273, .st274, .st275, .st276, .st277, .st278, .st279, .st280, .st281, .st282, .st283, .st284, .st285, .st286, .st287, .st288, .st289, .st290, .st291, .st292, .st293, .st294, .st295, .st296, .st297, .st298, .st299, .st300, .st301, .st302, .st303, .st304, .st305, .st306, .st307, .st308, .st309, .st310, .st311, .st312, .st313, .st314, .st315, .st316, .st317, .st318, .st319, .st320, .st321, .st322, .st323, .st324, .st325, .st326, .st327, .st328, .st329, .st330, .st331, .st332, .st333, .st334, .st335, .st336, .st337, .st338, .st339, .st340, .st341, .st342, .st343, .st344, .st345, .st346, .st347, .st348, .st349, .st350, .st351, .st352, .st353, .st354, .st355, .st356, .st357, .st358, .st359, .st360, .st361, .st362, .st363, .st364, .st365, .st366, .st367, .st368, .st369, .st370, .st371, .st372, .st373, .st374, .st375, .st376, .st377, .st378, .st379, .st380, .st381, .st382, .st383, .st384, .st385, .st386, .st387, .st388, .st389, .st390, .st391, .st392, .st393, .st394, .st395, .st396, .st397, .st398, .st399, .st400, .st401, .st402, .st403, .st404, .st405, .st406, .st407, .st408, .st409, .st410, .st411, .st412, .st413, .st414, .st415, .st416, .st417, .st418, .st419, .st420, .st421, .st422, .st423, .st424, .st425, .st426, .st427, .st428, .st429, .st430, .st431, .st432, .st433, .st434, .st435, .st436, .st437, .st438, .st439, .st440, .st441, .st442, .st443, .st444, .st445, .st446, .st447, .st448, .st449, .st450, .st451, .st452, .st453, .st454, .st455, .st456, .st457, .st458, .st459, .st460, .st461, .st462, .st463, .st464, .st465, .st466, .st467, .st468, .st469, .st470, .st471 {
        stroke-miterlimit: 10;
      }

      .st2 {
        stroke: #a7c022;
      }

      .st3 {
        stroke: #dcc61d;
      }

      .st4 {
        stroke: #569088;
      }

      .st5 {
        stroke: #89bc25;
      }

      .st6 {
        stroke: #eb601d;
      }

      .st7 {
        stroke: #a5c022;
      }

      .st8 {
        stroke: #ee751b;
      }

      .st9 {
        stroke: #e7381f;
      }

      .st10 {
        stroke: #f2b21b;
      }

      .st11 {
        stroke: #e73c1f;
      }

      .st472 {
        fill: #3d79bc;
      }

      .st12 {
        stroke: #f19f1a;
      }

      .st13 {
        stroke: #f2be1b;
      }

      .st14 {
        stroke: #f2c51b;
      }

      .st15 {
        stroke: #92bd24;
      }

      .st16 {
        stroke: #e42720;
      }

      .st17 {
        stroke: #c2c31f;
      }

      .st18 {
        stroke: #f2b51b;
      }

      .st19 {
        stroke: #f2bb1b;
      }

      .st20 {
        stroke: #81b82f;
      }

      .st21 {
        stroke: #8fbd24;
      }

      .st22 {
        stroke: #3e79bb;
      }

      .st23 {
        stroke: #84bb28;
      }

      .st24 {
        stroke: #4f8a97;
      }

      .st25 {
        stroke: #d0c51e;
      }

      .st26 {
        stroke: #609974;
      }

      .st27 {
        stroke: #dac61d;
      }

      .st28 {
        stroke: #eb5d1d;
      }

      .st29 {
        stroke: #e73e1e;
      }

      .st30 {
        stroke: #ed6a1c;
      }

      .st31 {
        stroke: #437faf;
      }

      .st32 {
        stroke: #e52c1f;
      }

      .st33 {
        stroke: #a2bf22;
      }

      .st34 {
        stroke: #f18c1a;
      }

      .st35 {
        stroke: #f0821b;
      }

      .st36 {
        stroke: #f19e1a;
      }

      .st37 {
        stroke: #e7391f;
      }

      .st38 {
        stroke: #99be23;
      }

      .st39 {
        stroke: #e94b1e;
      }

      .st40 {
        stroke: #e8481e;
      }

      .st41 {
        stroke: #6fa755;
      }

      .st42 {
        stroke: #f1a81a;
      }

      .st43 {
        stroke: #447fae;
      }

      .st44 {
        stroke: #7bb23b;
      }

      .st45 {
        stroke: #a8c022;
      }

      .st46 {
        stroke: #f1a21a;
      }

      .st47 {
        stroke: #4f5aa4;
      }

      .st48 {
        stroke: #69a261;
      }

      .st49 {
        stroke: #4172b7;
      }

      .st50 {
        stroke: #79b041;
      }

      .st51 {
        stroke: #5058a2;
      }

      .st52 {
        stroke: #f2c71b;
      }

      .st53 {
        stroke: #f2c91b;
      }

      .st54 {
        stroke: #508a95;
      }

      .st55 {
        stroke: #e0c71d;
      }

      .st56 {
        stroke: #ec631c;
      }

      .st57 {
        stroke: #aac022;
      }

      .st58 {
        stroke: #f2ad1b;
      }

      .st59 {
        stroke: #5c967b;
      }

      .st60 {
        stroke: #4d5da6;
      }

      .st61 {
        stroke: #afc121;
      }

      .st62 {
        stroke: #619a72;
      }

      .st63 {
        stroke: #71a951;
      }

      .st64 {
        stroke: #ec651c;
      }

      .st65 {
        stroke: #4b5fa8;
      }

      .st66 {
        stroke: #4074b8;
      }

      .st67 {
        stroke: #4984a2;
      }

      .st68 {
        stroke: #f1a91a;
      }

      .st69 {
        stroke: #574b99;
      }

      .st70 {
        stroke: #7ab13d;
      }

      .st71 {
        stroke: #f1951a;
      }

      .st72 {
        stroke: #ef7e1b;
      }

      .st73 {
        stroke: #407cb6;
      }

      .st74 {
        stroke: #f1971a;
      }

      .st75 {
        stroke: #eb5b1d;
      }

      .st76 {
        stroke: #ee731c;
      }

      .st77 {
        stroke: #a3bf22;
      }

      .st78 {
        stroke: #4e5ba5;
      }

      .st79 {
        stroke: #e6301f;
      }

      .st80 {
        stroke: #84ba29;
      }

      .st81 {
        stroke: #d3c51e;
      }

      .st82 {
        stroke: #c8c41f;
      }

      .st473 {
        fill: #e42320;
      }

      .st83 {
        stroke: #4c879c;
      }

      .st84 {
        stroke: #d7c61d;
      }

      .st85 {
        stroke: #b8c220;
      }

      .st86 {
        stroke: #649d6b;
      }

      .st87 {
        stroke: #528c90;
      }

      .st88 {
        stroke: #f0851b;
      }

      .st89 {
        stroke: #ef7c1b;
      }

      .st90 {
        stroke: #f0831b;
      }

      .st91 {
        stroke: #456bb1;
      }

      .st92 {
        stroke: #a6c022;
      }

      .st93 {
        stroke: #7eb535;
      }

      .st94 {
        stroke: #e6351f;
      }

      .st95 {
        stroke: #f1a01a;
      }

      .st96 {
        stroke: #68a163;
      }

      .st97 {
        stroke: #5e9877;
      }

      .st98 {
        stroke: #427eb1;
      }

      .st474 {
        fill: #efefef;
      }

      .st99 {
        stroke: #79b040;
      }

      .st100 {
        stroke: #ebc81c;
      }

      .st101 {
        stroke: #f1941a;
      }

      .st102 {
        stroke: #f18a1a;
      }

      .st103 {
        stroke: #3f75b9;
      }

      .st104 {
        stroke: #e6371f;
      }

      .st105 {
        stroke: #f18e1a;
      }

      .st106 {
        stroke: #f2c31b;
      }

      .st107 {
        stroke: #f2b11b;
      }

      .st108 {
        stroke: #f1a51a;
      }

      .st109 {
        stroke: #9abe23;
      }

      .st110 {
        stroke: #4580ac;
      }

      .st111 {
        stroke: #93be24;
      }

      .st112 {
        stroke: #72aa4d;
      }

      .st113 {
        stroke: #e6341f;
      }

      .st114 {
        stroke: #74ab4a;
      }

      .st115 {
        stroke: #4766ae;
      }

      .st116 {
        stroke: #c6c41f;
      }

      .st117 {
        stroke: #5a9380;
      }

      .st118 {
        stroke: #f2b31b;
      }

      .st475 {
        fill: #5a4594;
      }

      .st119 {
        stroke: #d1c51e;
      }

      .st120 {
        stroke: #4a85a0;
      }

      .st121 {
        stroke: #e6361f;
      }

      .st122 {
        stroke: #426fb4;
      }

      .st123 {
        stroke: #91bd24;
      }

      .st124 {
        stroke: #649c6c;
      }

      .st125 {
        stroke: #ea521d;
      }

      .st126 {
        stroke: #f1901a;
      }

      .st127 {
        stroke: #eb5a1d;
      }

      .st128 {
        stroke: #eec91b;
      }

      .st129 {
        stroke: #e8c81c;
      }

      .st130 {
        stroke: #6ca45a;
      }

      .st131 {
        stroke: #d6c61e;
      }

      .st132 {
        stroke: #96be24;
      }

      .st133 {
        stroke: #b4c121;
      }

      .st134 {
        stroke: #f19a1a;
      }

      .st135 {
        stroke: #f0c91b;
      }

      .st136 {
        stroke: #8cbd24;
      }

      .st137 {
        stroke: #edc81b;
      }

      .st138 {
        stroke: #e94d1e;
      }

      .st139 {
        stroke: #609a73;
      }

      .st140 {
        stroke: #538d8e;
      }

      .st141 {
        stroke: #4681aa;
      }

      .st142 {
        stroke: #554e9b;
      }

      .st143 {
        stroke: #bfc320;
      }

      .st144 {
        stroke: #a0bf23;
      }

      .st145 {
        stroke: #9fbf23;
      }

      .st146 {
        stroke: #f0881a;
      }

      .st147 {
        stroke: #6da558;
      }

      .st148 {
        stroke: #e42620;
      }

      .st149 {
        stroke: #579186;
      }

      .st150 {
        stroke: #ed6f1c;
      }

      .st151 {
        stroke: #80b731;
      }

      .st152 {
        stroke: #e42320;
      }

      .st153 {
        stroke: #f2ae1b;
      }

      .st154 {
        stroke: #ea561d;
      }

      .st155 {
        stroke: #ea571d;
      }

      .st156 {
        stroke: #ef7d1b;
      }

      .st157 {
        stroke: #e2c71c;
      }

      .st158 {
        stroke: #8abc25;
      }

      .st159 {
        stroke: #ddc61d;
      }

      .st160 {
        stroke: #4c5fa8;
      }

      .st161 {
        stroke: #8ebd24;
      }

      .st162 {
        stroke: #d8c61d;
      }

      .st163 {
        stroke: #f2c41b;
      }

      .st164 {
        stroke: #e52d1f;
      }

      .st165 {
        stroke: #4a85a1;
      }

      .st166 {
        stroke: #f2b71b;
      }

      .st167 {
        stroke: #ed691c;
      }

      .st168 {
        stroke: #4963ab;
      }

      .st169 {
        stroke: #7ab13f;
      }

      .st170 {
        stroke: #4864ac;
      }

      .st171 {
        stroke: #f2b61b;
      }

      .st172 {
        stroke: #87bc25;
      }

      .st173 {
        stroke: #5d967a;
      }

      .st174 {
        stroke: #f1a61a;
      }

      .st175 {
        stroke: #8dbd24;
      }

      .st176 {
        stroke: #76ad47;
      }

      .st177 {
        stroke: #95be24;
      }

      .st178 {
        stroke: #4681a9;
      }

      .st179 {
        stroke: #f0891a;
      }

      .st180 {
        stroke: #ea551d;
      }

      .st181 {
        stroke: #75ac49;
      }

      .st476 {
        isolation: isolate;
      }

      .st182 {
        stroke: #4b60a9;
      }

      .st183 {
        stroke: #aec121;
      }

      .st184 {
        stroke: #4d5ca5;
      }

      .st185 {
        stroke: #9cbf23;
      }

      .st186 {
        stroke: #9dbf23;
      }

      .st187 {
        stroke: #e9501d;
      }

      .st188 {
        stroke: #efc91b;
      }

      .st189 {
        stroke: #acc122;
      }

      .st190 {
        stroke: #85bb27;
      }

      .st191 {
        stroke: #ee761b;
      }

      .st192 {
        stroke: #f1a71a;
      }

      .st193 {
        stroke: #5a947f;
      }

      .st194 {
        stroke: #f19b1a;
      }

      .st477 {
        fill: #86bc25;
      }

      .st195 {
        stroke: #f2c81b;
      }

      .st196 {
        stroke: #5f9975;
      }

      .st197 {
        stroke: #639c6d;
      }

      .st198 {
        stroke: #548e8c;
      }

      .st199 {
        stroke: #594796;
      }

      .st200 {
        stroke: #f1991a;
      }

      .st201 {
        stroke: #3e7aba;
      }

      .st202 {
        stroke: #5156a1;
      }

      .st203 {
        stroke: #b9c220;
      }

      .st204 {
        stroke: #7eb436;
      }

      .st205 {
        stroke: #4767ae;
      }

      .st206 {
        stroke: #e73f1e;
      }

      .st207 {
        stroke: #4171b6;
      }

      .st208 {
        stroke: #4c879d;
      }

      .st209 {
        stroke: #669f67;
      }

      .st210 {
        stroke: #bdc320;
      }

      .st211 {
        stroke: #f2c61b;
      }

      .st212 {
        stroke: #446db3;
      }

      .st213 {
        stroke: #f2bf1b;
      }

      .st214 {
        stroke: #bbc220;
      }

      .st215 {
        stroke: #e42520;
      }

      .st216 {
        stroke: #e8461e;
      }

      .st217 {
        stroke: #584896;
      }

      .st218 {
        stroke: #4a61aa;
      }

      .st219 {
        stroke: #cdc51e;
      }

      .st220 {
        stroke: #ef801b;
      }

      .st221 {
        stroke: #4b869e;
      }

      .st222 {
        stroke: #6ea656;
      }

      .st223 {
        stroke: #6ba35c;
      }

      .st224 {
        stroke: #f1c91b;
      }

      .st225 {
        stroke: #f2b41b;
      }

      .st226 {
        stroke: #ef7f1b;
      }

      .st227 {
        stroke: #ef811b;
      }

      .st228 {
        stroke: #70a853;
      }

      .st229 {
        stroke: #ec611d;
      }

      .st230 {
        stroke: #3f7bb8;
      }

      .st231 {
        stroke: #4d889b;
      }

      .st232 {
        stroke: #d5c61e;
      }

      .st233 {
        stroke: #e8451e;
      }

      .st234 {
        stroke: #cec51e;
      }

      .st235 {
        stroke: #e73a1f;
      }

      .st236 {
        stroke: #ee771b;
      }

      .st237 {
        stroke: #ec671c;
      }

      .st238 {
        stroke: #ea541d;
      }

      .st239 {
        stroke: #cac41f;
      }

      .st240 {
        stroke: #77ae45;
      }

      .st241 {
        stroke: #94be24;
      }

      .st242 {
        stroke: #78af43;
      }

      .st243 {
        stroke: #4984a4;
      }

      .st244 {
        stroke: #c9c41f;
      }

      .st245 {
        stroke: #639b6e;
      }

      .st246 {
        stroke: #f1aa1a;
      }

      .st247 {
        stroke: #5d9779;
      }

      .st248 {
        stroke: #4865ad;
      }

      .st249 {
        stroke: #e7c81c;
      }

      .st250 {
        stroke: #f1911a;
      }

      .st251 {
        stroke: #518b94;
      }

      .st252 {
        stroke: #e52f1f;
      }

      .st253 {
        stroke: #a9c022;
      }

      .st254 {
        stroke: #76ad46;
      }

      .st255 {
        stroke: #3e78bb;
      }

      .st256 {
        stroke: #4b869f;
      }

      .st257 {
        stroke: #f2c11b;
      }

      .st258 {
        stroke: #f1a11a;
      }

      .st259 {
        stroke: #e42420;
      }

      .st260 {
        stroke: #4f59a3;
      }

      .st261 {
        stroke: #67a065;
      }

      .st262 {
        stroke: #564c99;
      }

      .st263 {
        stroke: #6ca45b;
      }

      .st264 {
        stroke: #e52e1f;
      }

      .st265 {
        stroke: #88bc25;
      }

      .st266 {
        stroke: #f2ac1b;
      }

      .st267 {
        stroke: #c7c41f;
      }

      .st268 {
        stroke: #90bd24;
      }

      .st269 {
        stroke: #f2b81b;
      }

      .st270 {
        stroke: #e94a1e;
      }

      .st271 {
        stroke: #5e9778;
      }

      .st272 {
        stroke: #e73b1f;
      }

      .st273 {
        stroke: #4668af;
      }

      .st274 {
        stroke: #69a162;
      }

      .st275 {
        stroke: #ed6c1c;
      }

      .st276 {
        stroke: #548e8d;
      }

      .st277 {
        stroke: #ec661c;
      }

      .st278 {
        stroke: #6da559;
      }

      .st279 {
        stroke: #e5c71c;
      }

      .st280 {
        stroke: #e9491e;
      }

      .st281 {
        stroke: #436eb4;
      }

      .st282 {
        stroke: #f19c1a;
      }

      .st283 {
        stroke: #70a852;
      }

      .st284 {
        stroke: #f18b1a;
      }

      .st285 {
        stroke: #c1c31f;
      }

      .st286 {
        stroke: #e52a20;
      }

      .st287 {
        stroke: #52549f;
      }

      .st288 {
        stroke: #3e77ba;
      }

      .st289 {
        stroke: #7fb633;
      }

      .st290 {
        stroke: #f0861a;
      }

      .st291 {
        stroke: #abc022;
      }

      .st292 {
        stroke: #e73d1f;
      }

      .st293 {
        stroke: #e6331f;
      }

      .st294 {
        stroke: #54509c;
      }

      .st295 {
        stroke: #ea531d;
      }

      .st296 {
        stroke: #e7401e;
      }

      .st297 {
        stroke: #ec641c;
      }

      .st298 {
        stroke: #73ab4b;
      }

      .st299 {
        stroke: #417db3;
      }

      .st300 {
        stroke: #518b93;
      }

      .st301 {
        stroke: #cfc51e;
      }

      .st302 {
        stroke: #e8441e;
      }

      .st303 {
        stroke: #bac220;
      }

      .st304 {
        stroke: #adc121;
      }

      .st305 {
        stroke: #dfc71d;
      }

      .st306 {
        stroke: #f1931a;
      }

      .st307 {
        stroke: #d9c61d;
      }

      .st308 {
        stroke: #b2c121;
      }

      .st309 {
        stroke: #eb5c1d;
      }

      .st310 {
        stroke: #5c957c;
      }

      .st311 {
        stroke: #4d889a;
      }

      .st312 {
        stroke: #f2bd1b;
      }

      .st313 {
        stroke: #f2ba1b;
      }

      .st314 {
        stroke: #82b92c;
      }

      .st315 {
        stroke: #b7c221;
      }

      .st316 {
        stroke: #85bc26;
      }

      .st317 {
        stroke: #c0c320;
      }

      .st318 {
        stroke: #ccc41e;
      }

      .st319 {
        stroke: #ed701c;
      }

      .st320 {
        stroke: #3f76ba;
      }

      .st321 {
        stroke: #5a4594;
      }

      .st322 {
        stroke: #589285;
      }

      .st323 {
        stroke: #68a064;
      }

      .st324 {
        stroke: #594695;
      }

      .st325 {
        stroke: #eb5e1d;
      }

      .st326 {
        stroke: #b3c121;
      }

      .st327 {
        stroke: #9ebf23;
      }

      .st328 {
        stroke: #5f9876;
      }

      .st329 {
        stroke: #75ac48;
      }

      .st330 {
        stroke: #ec621c;
      }

      .st331 {
        stroke: #eac81c;
      }

      .st332 {
        stroke: #b1c121;
      }

      .st333 {
        stroke: #4e8998;
      }

      .st334 {
        stroke: #584997;
      }

      .st335 {
        stroke: #ec681c;
      }

      .st336 {
        stroke: #629b70;
      }

      .st337 {
        stroke: #83ba2a;
      }

      .st338 {
        stroke: #b5c221;
      }

      .st339 {
        stroke: #e8471e;
      }

      .st340 {
        stroke: #e4c71c;
      }

      .st341 {
        stroke: #98be23;
      }

      .st342 {
        stroke: #f2af1b;
      }

      .st343 {
        stroke: #f1981a;
      }

      .st344 {
        stroke: #81b730;
      }

      .st345 {
        stroke: #dbc61d;
      }

      .st346 {
        stroke: #86bc25;
      }

      .st347 {
        stroke: #ed6d1c;
      }

      .st348 {
        stroke: #8bbd25;
      }

      .st349 {
        stroke: #bec320;
      }

      .st350 {
        stroke: #e8411e;
      }

      .st351 {
        stroke: #3d79bc;
      }

      .st352 {
        stroke: #679f66;
      }

      .st353 {
        stroke: #bcc320;
      }

      .st354 {
        stroke: #538d8f;
      }

      .st355 {
        stroke: #659e69;
      }

      .st356 {
        stroke: #c5c41f;
      }

      .st357 {
        stroke: #f0871a;
      }

      .st358 {
        stroke: #6aa35e;
      }

      .st359 {
        stroke: #e52820;
      }

      .st360 {
        stroke: #5b947e;
      }

      .st361 {
        stroke: #7cb33a;
      }

      .st362 {
        stroke: #6ba35d;
      }

      .st363 {
        stroke: #cbc41f;
      }

      .st364 {
        stroke: #5155a0;
      }

      .st365 {
        stroke: #e1c71d;
      }

      .st366 {
        stroke: #78af42;
      }

      .st367 {
        stroke: #eb591d;
      }

      .st368 {
        stroke: #eb5f1d;
      }

      .st369 {
        stroke: #579187;
      }

      .st370 {
        stroke: #9bbf23;
      }

      .st371 {
        stroke: #ef7a1b;
      }

      .st372 {
        stroke: #456ab1;
      }

      .st373 {
        stroke: #569089;
      }

      .st374 {
        stroke: #ee741b;
      }

      .st375 {
        stroke: #f2b91b;
      }

      .st376 {
        stroke: #7cb339;
      }

      .st377 {
        stroke: #7db437;
      }

      .st378 {
        stroke: #528c91;
      }

      .st379 {
        stroke: #f2b01b;
      }

      .st380 {
        stroke: #4669b0;
      }

      .st381 {
        stroke: #e6321f;
      }

      .st382 {
        stroke: #669e68;
      }

      .st383 {
        stroke: #f2c01b;
      }

      .st384 {
        stroke: #e52920;
      }

      .st385 {
        stroke: #f1961a;
      }

      .st386 {
        stroke: #564d9a;
      }

      .st387 {
        stroke: #d4c51e;
      }

      .st478 {
        fill: #f18e1a;
      }

      .st388 {
        stroke: #ef7b1b;
      }

      .st389 {
        stroke: #ea511d;
      }

      .st390 {
        stroke: #e94f1e;
      }

      .st391 {
        stroke: #e6c81c;
      }

      .st392 {
        stroke: #f18d1a;
      }

      .st393 {
        stroke: #508a96;
      }

      .st394 {
        stroke: #73ab4c;
      }

      .st395 {
        stroke: #4782a8;
      }

      .st396 {
        stroke: #80b632;
      }

      .st397 {
        stroke: #4480ad;
      }

      .st398 {
        stroke: #77ae44;
      }

      .st399 {
        stroke: #ed6e1c;
      }

      .st400 {
        stroke: #f1a41a;
      }

      .st401 {
        stroke: #4581ab;
      }

      .st402 {
        stroke: #4c5ea7;
      }

      .st403 {
        stroke: #b6c221;
      }

      .st404 {
        stroke: #f2c21b;
      }

      .st405 {
        stroke: #f18f1a;
      }

      .st406 {
        stroke: #4883a5;
      }

      .st407 {
        stroke: #659d6a;
      }

      .st408 {
        stroke: #589284;
      }

      .st409 {
        stroke: #417cb5;
      }

      .st410 {
        stroke: #4a62ab;
      }

      .st411 {
        stroke: #3f7ab9;
      }

      .st479 {
        fill: #f2c91b;
      }

      .st412 {
        stroke: #ee721c;
      }

      .st413 {
        stroke: #ee781b;
      }

      .st414 {
        stroke: #f0841b;
      }

      .st415 {
        stroke: #4e8999;
      }

      .st416 {
        stroke: #7fb534;
      }

      .st417 {
        stroke: #f1a31a;
      }

      .st418 {
        stroke: #d2c51e;
      }

      .st419 {
        stroke: #f2bc1b;
      }

      .st420 {
        stroke: #ed6b1c;
      }

      .st421 {
        stroke: #c4c41f;
      }

      .st422 {
        stroke: #e94c1e;
      }

      .st423 {
        stroke: #e8421e;
      }

      .st424 {
        stroke: #574a98;
      }

      .st425 {
        stroke: #558f8b;
      }

      .st426 {
        stroke: #599382;
      }

      .st427 {
        stroke: #e9c81c;
      }

      .st428 {
        stroke: #ee711c;
      }

      .st429 {
        stroke: #82b82e;
      }

      .st430 {
        stroke: #b0c121;
      }

      .st431 {
        stroke: #4270b5;
      }

      .st432 {
        stroke: #52539f;
      }

      .st433 {
        stroke: #72aa4e;
      }

      .st434 {
        stroke: #83b92b;
      }

      .st435 {
        stroke: #7bb23c;
      }

      .st436 {
        stroke: #e3c71c;
      }

      .st437 {
        stroke: #5b957d;
      }

      .st438 {
        stroke: #dec71d;
      }

      .st439 {
        stroke: #bcc220;
      }

      .st440 {
        stroke: #e52b20;
      }

      .st441 {
        stroke: #446cb2;
      }

      .st442 {
        stroke: #7db438;
      }

      .st443 {
        stroke: #4073b7;
      }

      .st444 {
        stroke: #e94e1e;
      }

      .st445 {
        stroke: #5057a2;
      }

      .st446 {
        stroke: #6ea657;
      }

      .st447 {
        stroke: #e6311f;
      }

      .st448 {
        stroke: #f1921a;
      }

      .st449 {
        stroke: #71a950;
      }

      .st450 {
        stroke: #554f9c;
      }

      .st451 {
        stroke: #4782a7;
      }

      .st452 {
        stroke: #a1bf23;
      }

      .st480 {
        clip-path: url(#clippath);
      }

      .st453 {
        stroke: #f1ab1a;
      }

      .st454 {
        stroke: #6aa25f;
      }

      .st455 {
        stroke: #a4c022;
      }

      .st456 {
        stroke: #599283;
      }

      .st457 {
        stroke: #629b6f;
      }

      .st458 {
        stroke: #ee791b;
      }

      .st459 {
        stroke: #e8431e;
      }

      .st460 {
        stroke: #f19d1a;
      }

      .st461 {
        stroke: #ea581d;
      }

      .st462 {
        stroke: #c3c31f;
      }

      .st463 {
        stroke: #558f8a;
      }

      .st464 {
        stroke: #427db2;
      }

      .st465 {
        stroke: #4883a6;
      }

      .st466 {
        stroke: #53519d;
      }

      .st467 {
        stroke: #437eb0;
      }

      .st468 {
        stroke: #53529e;
      }

      .st469 {
        stroke: #ecc81c;
      }

      .st470 {
        stroke: #6fa754;
      }

      .st471 {
        stroke: #97be23;
      }
    </style>
    <clipPath id="clippath">
      <polygon class="st0" points="78.9 48.8 69.5 53.6 60.2 58.5 50.8 63.3 41.4 58.5 32 53.6 22.6 48.8 50.8 0 78.9 48.8"/>
    </clipPath>
  </defs>
  <g id="Layer_2-2">
    <g id="Layer_6">
      <g>
        <g class="st476">
          <g class="st476">
            <g class="st476">
              <path class="st474" d="M.6,73.5h5.7c.7,0,1.3,0,1.9.3.6.2,1,.5,1.5.8.4.4.7.8.9,1.3s.3,1,.3,1.6-.1,1.1-.3,1.6c-.2.5-.5.9-.9,1.3s-.9.6-1.5.8c-.6.2-1.2.3-1.9.3h-3.3l.3-.3v4.3H.6v-12ZM3.2,75.5v4.1l-.2-.3h3.1c.3,0,.6,0,.9-.1s.5-.2.7-.4c.2-.2.3-.3.4-.6s.1-.5.1-.8,0-.5-.1-.8c0-.2-.2-.4-.4-.6-.2-.2-.4-.3-.6-.4-.3,0-.5-.1-.9-.1h-3.1v-.2Z"/>
            </g>
          </g>
          <g class="st476">
            <g class="st476">
              <path class="st474" d="M11.8,85.5v-12h5.9c.7,0,1.3,0,1.8.3s1,.4,1.4.7c.4.3.7.7.9,1.1.2.4.3.9.3,1.5s0,1-.2,1.4c-.2.4-.4.7-.7,1-.3.3-.7.5-1.1.7s-.9.2-1.4.2h0c.3,0,.5,0,.7.1.2,0,.4.2.6.4.2.2.4.4.5.6.2.2.3.5.5.8l1.4,3.2h-2.9l-1.5-3.2c-.1-.2-.2-.4-.3-.6-.1-.2-.2-.3-.4-.4-.1,0-.3-.2-.5-.2s-.4,0-.6,0h-1.9l.2-.2v4.6h-2.7ZM14.4,75.5v3.7l-.2-.3h3.2c.3,0,.6,0,.8-.1s.5-.2.6-.3.3-.3.4-.5.1-.4.1-.7,0-.5-.1-.7-.2-.4-.4-.5c-.2-.1-.4-.2-.6-.3s-.5-.1-.9-.1h-3.1v-.2Z"/>
              <path class="st474" d="M25.9,85.5h-2.7v-12h2.7v12Z"/>
              <path class="st474" d="M34.2,73.5c.6.2,1.1.5,1.6.8.4.3.8.8,1,1.3.2.5.3,1.1.3,1.7h-2.5c0-.3,0-.5-.2-.8-.1-.2-.3-.4-.5-.6-.2-.2-.5-.3-.8-.4-.3,0-.6-.1-1-.1s-.4,0-.6,0c-.2,0-.4,0-.6.1-.2,0-.3.1-.5.2-.2,0-.3.2-.4.3-.1.1-.2.2-.3.4,0,.1,0,.3,0,.5s0,.3,0,.4c0,.1.1.2.2.3.1,0,.2.2.4.2s.3.1.5.2.4,0,.7.1.5,0,.8.1h.5c.3.1.7.2,1,.2s.7.1,1.1.3c.3.1.7.2,1,.4.3.2.6.4.8.6s.4.5.6.9.2.8.2,1.2-.1,1.2-.4,1.7c-.3.5-.6.9-1.1,1.2-.5.3-1,.6-1.7.7-.7.2-1.4.2-2.2.2s-1.6,0-2.3-.3-1.2-.5-1.7-.8-.8-.8-1-1.3c-.2-.5-.4-1.1-.4-1.8h2.5c0,.3,0,.6.2.8.1.2.3.5.6.6.2.2.5.3.9.4.3,0,.7.1,1.2.1s.7,0,1.1-.1.6-.2.9-.3.4-.3.6-.5c.1-.2.2-.4.2-.7s0-.3,0-.5c0-.1-.1-.2-.2-.3-.1,0-.2-.2-.4-.2-.1,0-.3-.1-.5-.2-.2,0-.4,0-.6-.1s-.5,0-.8-.1h-.6c-.3-.1-.7-.2-1-.2-.4,0-.7-.1-1-.2s-.7-.2-1-.4-.6-.3-.8-.6c-.2-.2-.4-.5-.6-.8-.1-.3-.2-.7-.2-1.2s0-.8.2-1.1.3-.7.5-1,.5-.5.8-.7c.3-.2.6-.4,1-.5.4-.1.8-.3,1.2-.3s.9-.1,1.4-.1c.8,0,1.5,0,2.1.3Z"/>
              <path class="st474" d="M52.7,73.5v12h-2.7v-10.4h.2l-3.3,10.4h-2.9l-3.3-10.4h.2v10.4h-2.5v-12h4.3l3.1,10h-.4l3.2-10h4.1Z"/>
            </g>
          </g>
          <g class="st476">
            <g class="st476">
              <path class="st474" d="M53.2,85.5l4.1-12h3.7l4.1,12h-2.8l-3.4-11.2h.5l-3.5,11.2h-2.8ZM55.7,80.7h7.4v2.2h-7.4v-2.2Z"/>
            </g>
          </g>
          <g class="st476">
            <g class="st476">
              <path class="st474" d="M74.2,75.8h-3.9l.2-.2v10h-2.7v-10l.2.2h-3.9v-2.3h10.1v2.3Z"/>
              <path class="st474" d="M77.6,85.5h-2.7v-12h2.7v12Z"/>
            </g>
          </g>
          <g class="st476">
            <g class="st476">
              <path class="st474" d="M81.4,80.7c0,.4.2.7.3,1,.1.3.3.6.5.8.2.2.4.4.6.6.2.2.5.3.8.3.3,0,.6.1.9.1s.8,0,1.1-.2c.3-.1.6-.3.9-.5.2-.2.4-.5.6-.9.2-.4.3-.8.4-1.2h2.6c-.1.8-.3,1.5-.6,2.1s-.7,1.2-1.2,1.6-1,.8-1.7,1c-.6.2-1.3.3-2.1.3s-1.1,0-1.6-.2c-.5-.1-1-.3-1.4-.6-.4-.3-.8-.6-1.2-.9-.3-.4-.6-.8-.9-1.2-.2-.5-.4-1-.6-1.5-.1-.6-.2-1.1-.2-1.8s0-1.2.2-1.8.3-1.1.6-1.5.5-.9.9-1.2.7-.7,1.2-.9c.4-.3.9-.4,1.4-.6.5-.1,1.1-.2,1.6-.2s1.4.1,2.1.3c.6.2,1.2.6,1.7,1s.9,1,1.2,1.6.5,1.3.6,2.1h-2.6c0-.5-.2-.9-.4-1.2-.2-.4-.4-.6-.6-.9-.2-.2-.5-.4-.9-.5-.3-.1-.7-.2-1.1-.2s-.6,0-.9.1-.5.2-.8.3c-.2.2-.4.3-.6.6-.2.2-.3.5-.5.8-.1.3-.2.6-.3,1,0,.4,0,.8,0,1.2s0,.8,0,1.2Z"/>
            </g>
          </g>
          <g class="st476">
            <g class="st476">
              <path class="st474" d="M89.7,85.5l4.1-12h3.7l4.1,12h-2.8l-3.4-11.2h.5l-3.5,11.2h-2.8ZM92.1,80.7h7.4v2.2h-7.4v-2.2Z"/>
            </g>
          </g>
        </g>
        <g>
          <g>
            <polygon class="st473" points="22.6 48.8 32 53.6 50.8 0 22.6 48.8"/>
            <polygon class="st478" points="32 53.6 41.4 58.5 50.8 0 32 53.6"/>
            <polygon class="st479" points="41.4 58.5 50.8 63.3 50.8 0 41.4 58.5"/>
            <polygon class="st477" points="50.8 63.3 60.2 58.5 50.8 0 50.8 63.3"/>
            <polygon class="st472" points="60.2 58.5 69.5 53.6 50.8 0 60.2 58.5"/>
            <polygon class="st475" points="50.8 0 69.5 53.6 78.9 48.8 50.8 0"/>
          </g>
          <g class="st480">
            <g>
              <path class="st152" d="M33.7,25.9c4.4-2.9,11-8.5,14.9-2.5s6.5,11.6,12.7,6.9c5.3-4,7.1-3.1,7.1-3.1"/>
              <path class="st259" d="M33.7,25.9c3.7-2.4,9-6.8,12.9-4.4.7.4,1.4,1.1,2,2,3.9,6,6.4,11.6,12.7,6.9,1.4-1.1,2.6-1.8,3.6-2.3,2.6-1.3,3.6-.8,3.6-.8"/>
              <path class="st215" d="M33.7,25.9c3.7-2.4,9-6.8,12.9-4.4.7.4,1.4,1.1,2,2,3.9,6,6.4,11.6,12.6,6.9,1.5-1.1,2.7-1.8,3.6-2.3,2.6-1.2,3.6-.8,3.6-.8"/>
              <path class="st148" d="M33.7,25.9c3.7-2.4,9-6.7,12.9-4.4.7.4,1.4,1.1,2,2,3.9,6,6.4,11.6,12.6,6.9,1.5-1.1,2.7-1.9,3.7-2.3,2.6-1.2,3.7-.8,3.6-.8"/>
              <path class="st16" d="M33.7,25.9c3.7-2.4,9-6.7,12.9-4.4.7.4,1.3,1.1,2,2,3.9,6,6.4,11.6,12.5,7,1.5-1.1,2.8-1.9,3.7-2.4,2.6-1.2,3.8-.7,3.7-.8"/>
              <path class="st359" d="M33.7,25.9c3.7-2.4,9-6.7,12.9-4.3.7.4,1.3,1.1,2,2,3.8,5.9,6.4,11.6,12.5,7,1.5-1.2,2.8-1.9,3.8-2.4,2.6-1.2,3.8-.7,3.7-.8"/>
              <path class="st384" d="M33.7,25.9c3.7-2.4,9-6.6,12.8-4.3.7.4,1.3,1.1,2,2,3.8,5.9,6.3,11.6,12.5,7,1.6-1.2,2.8-1.9,3.9-2.4,2.6-1.2,3.9-.7,3.8-.9"/>
              <path class="st286" d="M33.7,25.9c3.7-2.4,8.9-6.6,12.8-4.2.7.4,1.3,1.1,1.9,2,3.8,5.9,6.3,11.6,12.4,7,1.6-1.2,2.9-2,3.9-2.4,2.6-1.1,3.9-.7,3.8-.9"/>
              <path class="st440" d="M33.7,25.9c3.7-2.4,8.9-6.6,12.8-4.2.7.4,1.3,1.1,1.9,2,3.8,5.9,6.3,11.6,12.4,7,1.6-1.2,2.9-2,4-2.4,2.6-1.1,4-.6,3.8-.9"/>
              <path class="st32" d="M33.7,25.9c3.7-2.4,8.9-6.5,12.8-4.2.7.4,1.3,1.1,1.9,2,3.8,5.8,6.3,11.6,12.3,7,1.7-1.2,3-2,4-2.5,2.6-1.1,4.1-.6,3.9-.9"/>
              <path class="st164" d="M33.7,25.9c3.7-2.4,8.9-6.5,12.8-4.2.7.4,1.3,1.1,1.9,2,3.8,5.8,6.2,11.6,12.3,7.1,1.7-1.2,3-2,4.1-2.5,2.6-1.1,4.1-.6,3.9-.9"/>
              <path class="st264" d="M33.7,25.9c3.7-2.4,8.9-6.5,12.7-4.1.7.4,1.3,1.1,1.9,2,3.8,5.8,6.2,11.6,12.2,7.1,1.7-1.2,3.1-2,4.1-2.5,2.6-1,4.2-.6,3.9-.9"/>
              <path class="st252" d="M33.7,25.9c3.7-2.4,8.8-6.5,12.7-4.1.7.4,1.3,1.1,1.9,2,3.7,5.8,6.2,11.6,12.2,7.1,1.7-1.3,3.1-2.1,4.2-2.5,2.6-1,4.2-.5,4-.9"/>
              <path class="st79" d="M33.7,25.9c3.7-2.3,8.8-6.4,12.7-4.1.7.4,1.3,1.1,1.9,2,3.7,5.8,6.2,11.6,12.1,7.1,1.7-1.3,3.1-2.1,4.2-2.5,2.6-1,4.3-.5,4-.9"/>
              <path class="st447" d="M33.7,25.9c3.7-2.3,8.8-6.4,12.7-4,.7.4,1.3,1.1,1.9,2,3.7,5.8,6.2,11.6,12.1,7.2,1.8-1.3,3.2-2.1,4.3-2.5,2.6-1,4.4-.5,4.1-.9"/>
              <path class="st381" d="M33.7,25.9c3.7-2.3,8.8-6.4,12.6-4,.7.4,1.3,1.1,1.9,2,3.7,5.7,6.2,11.6,12,7.2,1.8-1.4,3.2-2.1,4.4-2.6,2.6-1,4.4-.5,4.1-.9"/>
              <path class="st293" d="M33.7,25.9c3.7-2.3,8.8-6.3,12.6-4,.7.4,1.3,1.1,1.9,2,3.7,5.7,6.1,11.6,12,7.2,1.8-1.4,3.2-2.2,4.4-2.6,2.6-.9,4.5-.5,4.1-.9"/>
              <path class="st113" d="M33.7,25.9c3.7-2.3,8.8-6.3,12.6-4,.7.4,1.3,1,1.9,2,3.7,5.7,6.1,11.6,11.9,7.2,1.8-1.4,3.3-2.2,4.4-2.6,2.6-.9,4.6-.4,4.2-.9"/>
              <path class="st94" d="M33.7,25.9c3.7-2.3,8.8-6.3,12.6-4,.7.4,1.3,1,1.9,2,3.7,5.7,6.1,11.6,11.9,7.2,1.9-1.4,3.3-2.2,4.5-2.6,2.6-.9,4.6-.4,4.2-.9"/>
              <path class="st121" d="M33.7,25.9c3.7-2.3,8.8-6.2,12.5-3.9.7.4,1.3,1,1.9,1.9,3.6,5.6,6.1,11.6,11.8,7.3,1.9-1.4,3.4-2.3,4.6-2.6,2.6-.9,4.7-.4,4.2-.9"/>
              <path class="st104" d="M33.7,25.9c3.7-2.3,8.7-6.2,12.5-3.9.7.4,1.3,1,1.9,1.9,3.6,5.6,6,11.6,11.8,7.3,1.9-1.4,3.4-2.3,4.6-2.7,2.6-.8,4.7-.4,4.3-.9"/>
              <path class="st9" d="M33.7,25.9c3.7-2.3,8.7-6.2,12.5-3.9.7.4,1.3,1,1.9,1.9,3.6,5.6,6,11.6,11.8,7.3,1.9-1.4,3.5-2.3,4.6-2.7,2.6-.8,4.8-.3,4.3-.9"/>
              <path class="st37" d="M33.7,25.9c3.7-2.3,8.7-6.1,12.5-3.8.7.4,1.3,1,1.9,1.9,3.6,5.6,6,11.6,11.7,7.3,2-1.5,3.5-2.3,4.7-2.7,2.6-.8,4.8-.3,4.3-.9"/>
              <path class="st235" d="M33.7,25.9c3.7-2.3,8.7-6.1,12.5-3.8.7.4,1.3,1,1.9,1.9,3.6,5.6,6,11.6,11.7,7.3,2-1.5,3.5-2.4,4.8-2.7,2.6-.8,4.9-.3,4.4-.9"/>
              <path class="st272" d="M33.7,25.9c3.7-2.3,8.7-6.1,12.5-3.8.7.4,1.3,1,1.9,1.9,3.6,5.5,6,11.6,11.6,7.4,2-1.5,3.6-2.4,4.8-2.7,2.6-.8,5-.3,4.4-.9"/>
              <path class="st11" d="M33.7,25.9c3.7-2.3,8.6-6.1,12.4-3.7.7.4,1.3,1,1.9,1.9,3.6,5.5,5.9,11.6,11.6,7.4,2-1.5,3.6-2.4,4.9-2.8,2.6-.7,5-.2,4.5-.9"/>
              <path class="st292" d="M33.7,25.9c3.7-2.2,8.6-6,12.4-3.7.7.4,1.3,1,1.9,1.9,3.5,5.5,5.9,11.6,11.5,7.4,2-1.5,3.7-2.4,4.9-2.8,2.6-.7,5.1-.2,4.5-1"/>
              <path class="st29" d="M33.7,25.9c3.7-2.2,8.6-6,12.4-3.7.7.4,1.3,1,1.9,1.9,3.5,5.5,5.9,11.6,11.5,7.4,2.1-1.6,3.7-2.5,5-2.8,2.6-.7,5.1-.2,4.5-1"/>
              <path class="st206" d="M33.7,25.9c3.7-2.2,8.6-6,12.4-3.6.7.4,1.3,1,1.8,1.9,3.5,5.4,5.9,11.6,11.5,7.5,2.1-1.6,3.8-2.5,5-2.8,2.6-.7,5.2-.2,4.6-1"/>
              <path class="st296" d="M33.7,25.9c3.7-2.2,8.6-5.9,12.3-3.6.7.4,1.3,1,1.8,1.9,3.5,5.4,5.8,11.6,11.4,7.5,2.1-1.6,3.8-2.5,5.1-2.9,2.6-.7,5.3-.1,4.6-1"/>
              <path class="st350" d="M33.7,25.9c3.7-2.2,8.6-5.9,12.3-3.6.7.4,1.3,1,1.8,1.9,3.5,5.4,5.8,11.6,11.4,7.5,2.2-1.6,3.8-2.5,5.1-2.9,2.6-.6,5.3-.1,4.7-1"/>
              <path class="st423" d="M33.7,25.9c3.7-2.2,8.5-5.9,12.3-3.6.7.4,1.3,1,1.8,1.9,3.5,5.4,5.8,11.6,11.3,7.5,2.2-1.6,3.9-2.5,5.2-2.9,2.6-.6,5.4-.1,4.7-1"/>
              <path class="st459" d="M33.7,25.9c3.7-2.2,8.5-5.8,12.3-3.5.6.4,1.2,1,1.8,1.9,3.5,5.4,5.8,11.6,11.3,7.6,2.2-1.6,3.9-2.6,5.3-2.9,2.6-.6,5.4,0,4.7-1"/>
              <path class="st302" d="M33.7,25.9c3.7-2.2,8.5-5.8,12.2-3.5.6.4,1.2,1,1.8,1.9,3.5,5.4,5.8,11.6,11.2,7.6,2.2-1.6,4-2.6,5.3-2.9,2.6-.6,5.5,0,4.8-1"/>
              <path class="st233" d="M33.7,25.9c3.7-2.2,8.5-5.8,12.2-3.5.6.4,1.2,1,1.8,1.9,3.5,5.3,5.8,11.6,11.2,7.6,2.3-1.7,4-2.6,5.4-2.9,2.6-.6,5.6,0,4.8-1"/>
              <path class="st216" d="M33.7,25.9c3.7-2.2,8.5-5.8,12.2-3.5.6.4,1.2,1,1.8,1.9,3.5,5.3,5.7,11.6,11.1,7.6,2.3-1.7,4-2.7,5.4-2.9,2.5-.5,5.6,0,4.8-1"/>
              <path class="st339" d="M33.7,25.9c3.7-2.2,8.5-5.7,12.2-3.4.6.4,1.2,1,1.8,1.9,3.4,5.3,5.7,11.6,11.1,7.6,2.3-1.7,4.1-2.7,5.5-3,2.5-.5,5.7,0,4.9-1"/>
              <path class="st40" d="M33.7,25.9c3.7-2.2,8.5-5.7,12.2-3.4.6.4,1.2,1,1.8,1.9,3.4,5.3,5.7,11.6,11,7.6,2.3-1.7,4.1-2.7,5.5-3,2.5-.5,5.8,0,4.9-1"/>
              <path class="st280" d="M33.7,25.9c3.7-2.1,8.4-5.7,12.1-3.4.6.4,1.2,1,1.8,1.9,3.4,5.3,5.7,11.6,11,7.7,2.4-1.7,4.2-2.7,5.6-3,2.5-.5,5.8,0,5-1"/>
              <path class="st270" d="M33.7,25.9c3.7-2.1,8.4-5.6,12.1-3.3.6.4,1.2,1,1.8,1.9,3.4,5.2,5.7,11.6,10.9,7.7,2.4-1.7,4.2-2.8,5.6-3,2.5-.5,5.9,0,5-1"/>
              <path class="st39" d="M33.7,25.9c3.7-2.1,8.4-5.6,12.1-3.3.6.4,1.2,1,1.8,1.9,3.4,5.2,5.6,11.6,10.9,7.7,2.4-1.8,4.2-2.8,5.7-3.1,2.5-.5,5.9,0,5-1"/>
              <path class="st422" d="M33.7,25.9c3.7-2.1,8.4-5.6,12.1-3.3.6.4,1.2,1,1.8,1.9,3.4,5.2,5.6,11.6,10.8,7.7,2.5-1.8,4.3-2.8,5.8-3.1,2.5-.5,6,0,5.1-1"/>
              <path class="st138" d="M33.7,25.9c3.7-2.1,8.4-5.5,12.1-3.2.6.4,1.2,1,1.8,1.9,3.4,5.2,5.6,11.6,10.8,7.8,2.5-1.8,4.3-2.9,5.8-3.1,2.5-.4,6,.1,5.1-1"/>
              <path class="st444" d="M33.7,25.9c3.7-2.1,8.4-5.5,12-3.2.6.4,1.2,1,1.8,1.9,3.3,5.1,5.6,11.6,10.7,7.8,2.5-1.8,4.3-2.9,5.8-3.1,2.5-.4,6.1.1,5.1-1"/>
              <path class="st390" d="M33.7,25.9c3.7-2.1,8.3-5.5,12-3.2.6.4,1.2,1,1.8,1.8,3.3,5.1,5.6,11.6,10.7,7.8,2.5-1.8,4.4-2.9,5.9-3.1,2.5-.4,6.2.2,5.2-1"/>
              <path class="st187" d="M33.7,25.9c3.7-2.1,8.3-5.5,12-3.2.6.4,1.2,1,1.8,1.8,3.3,5.1,5.5,11.6,10.7,7.8,2.5-1.9,4.4-2.9,6-3.1,2.5-.4,6.2.2,5.2-1"/>
              <path class="st389" d="M33.7,25.9c3.7-2.1,8.3-5.4,12-3.1.6.4,1.2,1,1.8,1.8,3.3,5.1,5.5,11.6,10.6,7.9,2.6-1.9,4.5-2.9,6-3.1,2.5-.4,6.3.2,5.3-1"/>
              <path class="st125" d="M33.7,25.9c3.7-2.1,8.3-5.4,12-3.1.6.4,1.2,1,1.8,1.8,3.3,5.1,5.5,11.6,10.6,7.9,2.6-1.9,4.5-3,6.1-3.2,2.5-.4,6.3.2,5.3-1"/>
              <path class="st295" d="M33.7,25.9c3.7-2.1,8.3-5.4,11.9-3.1.6.4,1.2,1,1.7,1.8,3.3,5,5.5,11.6,10.5,7.9,2.6-1.9,4.6-3,6.1-3.2,2.5-.3,6.4.3,5.3-1"/>
              <path class="st238" d="M33.7,25.9c3.7-2.1,8.2-5.3,11.9-3.1.6.4,1.2,1,1.7,1.8,3.3,5,5.5,11.6,10.5,7.9,2.6-1.9,4.6-3,6.2-3.2,2.5-.3,6.5.3,5.4-1"/>
              <path class="st180" d="M33.7,25.9c3.7-2,8.2-5.3,11.9-3,.6.4,1.2,1,1.7,1.8,3.2,5,5.5,11.6,10.4,8,2.7-2,4.7-3,6.2-3.2,2.5-.3,6.5.3,5.4-1"/>
              <path class="st154" d="M33.7,25.9c3.7-2,8.2-5.3,11.9-3,.6.4,1.2,1,1.7,1.8,3.2,5,5.4,11.6,10.4,8,2.7-2,4.7-3.1,6.3-3.2,2.5-.3,6.6.3,5.5-1"/>
              <path class="st155" d="M33.7,25.9c3.7-2,8.2-5.2,11.8-3,.6.4,1.2,1,1.7,1.8,3.2,5,5.4,11.6,10.3,8,2.7-2,4.7-3.1,6.3-3.3,2.5-.3,6.6.4,5.5-1"/>
              <path class="st461" d="M33.7,25.9c3.7-2,8.2-5.2,11.8-2.9.6.4,1.2,1,1.7,1.8,3.2,5,5.4,11.6,10.3,8,2.7-2,4.8-3.1,6.4-3.3,2.5-.3,6.7.4,5.5-1.1"/>
              <path class="st461" d="M33.7,25.9c3.7-2,8.2-5.2,11.8-2.9.6.4,1.2,1,1.7,1.8,3.2,4.9,5.4,11.6,10.2,8.1,2.8-2,4.8-3.1,6.4-3.3,2.5-.2,6.8.4,5.6-1.1"/>
              <path class="st367" d="M33.7,25.9c3.7-2,8.1-5.1,11.8-2.9.6.4,1.2,1,1.7,1.8,3.2,4.9,5.3,11.6,10.2,8.1,2.8-2,4.8-3.2,6.5-3.3,2.5-.2,6.8.4,5.6-1.1"/>
              <path class="st127" d="M33.7,25.9c3.7-2,8.1-5.1,11.8-2.9.6.4,1.2,1,1.7,1.8,3.2,4.9,5.3,11.6,10.2,8.1,2.8-2,4.9-3.2,6.5-3.4,2.5-.2,6.9.5,5.6-1.1"/>
              <path class="st75" d="M33.7,25.9c3.7-2,8.1-5.1,11.8-2.9.6.4,1.2,1,1.7,1.8,3.2,4.9,5.3,11.6,10.1,8.1,2.8-2.1,4.9-3.2,6.6-3.4,2.5-.2,6.9.5,5.7-1.1"/>
              <path class="st309" d="M33.7,25.9c3.7-2,8.1-5,11.7-2.8.6.4,1.2,1,1.7,1.8,3.2,4.8,5.3,11.6,10.1,8.1,2.8-2.1,5-3,6.7-3.4,2.4-.6,7,.5,5.7-1.1"/>
              <path class="st28" d="M33.7,25.9c3.7-2,8.1-5,11.7-2.8.6.4,1.2,1,1.7,1.8,3.1,4.8,5.3,11.6,10,8.1,2.9-2.1,5-3,6.7-3.4,2.4-.5,7.1.5,5.8-1.1"/>
              <path class="st325" d="M33.7,25.9c3.7-2,8-5,11.7-2.8.6.4,1.2,1,1.7,1.8,3.1,4.8,5.2,11.6,10,8.2,2.9-2.1,5.1-3.1,6.8-3.4,2.4-.5,7.1.5,5.8-1.1"/>
              <path class="st368" d="M33.7,25.9c3.7-2,8-5,11.7-2.7.6.4,1.2,1,1.7,1.8,3.1,4.8,5.2,11.6,9.9,8.2,2.9-2.1,5.1-3.1,6.8-3.5,2.4-.5,7.2.5,5.8-1.1"/>
              <path class="st6" d="M33.7,25.9c3.7-2,8-4.9,11.6-2.7.6.4,1.2,1,1.7,1.8,3.1,4.7,5.2,11.6,9.9,8.2,3-2.1,5.2-3.1,6.9-3.5,2.4-.5,7.3.6,5.8-1.1"/>
              <path class="st229" d="M33.7,25.9c3.7-2,8-4.9,11.6-2.7.6.4,1.2,1,1.7,1.8,3.1,4.7,5.2,11.6,9.8,8.2,3-2.2,5.2-3.1,6.9-3.5,2.4-.5,7.3.6,5.9-1.1"/>
              <path class="st330" d="M33.7,25.9c3.7-2,8-4.9,11.6-2.6.6.4,1.2,1,1.7,1.8,3.1,4.7,5.2,11.6,9.8,8.3,3-2.2,5.2-3.2,7-3.5,2.4-.5,7.4.6,5.9-1.1"/>
              <path class="st56" d="M33.7,25.9c3.7-2,8-4.8,11.6-2.6.6.4,1.2,1,1.7,1.8,3.1,4.7,5.1,11.6,9.7,8.3,3-2.2,5.3-3.2,7-3.5,2.4-.5,7.4.6,6-1.1"/>
              <path class="st297" d="M33.7,25.9c3.7-2,8-4.8,11.5-2.6.6.4,1.2,1,1.7,1.8,3,4.7,5.1,11.6,9.7,8.3,3.1-2.2,5.3-3.2,7.1-3.5,2.4-.4,7.5.7,6-1.1"/>
              <path class="st64" d="M33.7,25.9c3.7-1.9,8-4.8,11.5-2.5.6.4,1.2,1,1.7,1.8,3,4.6,5.1,11.6,9.6,8.3,3.1-2.2,5.4-3.3,7.1-3.6,2.4-.4,7.5.7,6.1-1.1"/>
              <path class="st277" d="M33.7,25.9c3.7-1.9,7.9-4.7,11.5-2.5.6.4,1.2,1,1.7,1.8,3,4.6,5.1,11.6,9.6,8.4,3.1-2.3,5.4-3.3,7.2-3.6,2.4-.4,7.6.7,6.1-1.1"/>
              <path class="st237" d="M33.7,25.9c3.7-1.9,7.9-4.7,11.5-2.5.6.4,1.1,1,1.7,1.7,3,4.6,5,11.6,9.5,8.4,3.1-2.3,5.4-3.3,7.2-3.6,2.4-.4,7.6.7,6.1-1.1"/>
              <path class="st335" d="M33.7,25.9c3.7-1.9,7.9-4.7,11.5-2.5.6.4,1.1,1,1.7,1.7,3,4.6,5,11.6,9.5,8.4,3.2-2.3,5.5-3.4,7.3-3.6,2.4-.3,7.7.8,6.2-1.1"/>
              <path class="st167" d="M33.7,25.9c3.7-1.9,7.9-4.6,11.5-2.5.6.4,1.1,1,1.7,1.7,3,4.6,5,11.6,9.5,8.4,3.2-2.3,5.5-3.4,7.3-3.6,2.4-.3,7.8.8,6.2-1.1"/>
              <path class="st30" d="M33.7,25.9c3.7-1.9,7.9-4.6,11.4-2.4.6.4,1.1,1,1.7,1.7,3,4.6,5,11.6,9.4,8.5,3.2-2.3,5.5-3.4,7.4-3.7,2.4-.3,7.8.8,6.2-1.1"/>
              <path class="st420" d="M33.7,25.9c3.7-1.9,7.8-4.6,11.4-2.4.6.4,1.1,1,1.7,1.7,2.9,4.5,5,11.6,9.4,8.4,3.2-2.4,5.6-3.5,7.5-3.7,2.4-.3,7.9.8,6.3-1.1"/>
              <path class="st275" d="M33.7,25.9c3.7-1.9,7.8-4.6,11.4-2.4.6.4,1.1,1,1.7,1.7,2.9,4.5,5,11.7,9.3,8.5,3.2-2.4,5.6-3.5,7.5-3.7,2.4-.3,8,.9,6.3-1.2"/>
              <path class="st347" d="M33.7,25.9c3.7-1.9,7.8-4.5,11.4-2.3.6.4,1.1,1,1.6,1.7,2.9,4.5,5,11.7,9.3,8.5,3.3-2.4,5.7-3.5,7.6-3.7,2.4-.2,8,.9,6.3-1.2"/>
              <path class="st399" d="M33.7,25.9c3.7-1.9,7.8-4.5,11.3-2.3.6.4,1.1,1,1.6,1.7,2.9,4.5,4.9,11.7,9.2,8.5,3.3-2.4,5.7-3.5,7.6-3.7,2.4-.2,8.1.9,6.4-1.2"/>
              <path class="st150" d="M33.7,25.9c3.7-1.9,7.8-4.5,11.3-2.3.6.4,1.1,1,1.6,1.7,2.9,4.4,4.9,11.7,9.2,8.5,3.3-2.4,5.7-3.6,7.7-3.8,2.4-.2,8.1.9,6.4-1.2"/>
              <path class="st319" d="M33.7,25.9c3.7-1.9,7.8-4.4,11.3-2.2.6.4,1.1,1,1.6,1.7,2.9,4.4,4.9,11.7,9.2,8.6,3.4-2.4,5.8-3.6,7.7-3.8,2.4-.2,8.2,1,6.5-1.2"/>
              <path class="st428" d="M33.7,25.9c3.7-1.8,7.7-4.4,11.3-2.2.6.4,1.1,1,1.6,1.7,2.9,4.4,4.9,11.7,9.1,8.6,3.4-2.5,5.8-3.6,7.8-3.8,2.4-.2,8.3,1,6.5-1.2"/>
              <path class="st412" d="M33.7,25.9c3.7-1.8,7.7-4.4,11.2-2.2.6.4,1.1,1,1.6,1.7,2.9,4.4,4.8,11.7,9.1,8.6,3.4-2.5,5.8-3.7,7.8-3.8,2.4-.1,8.3,1,6.5-1.2"/>
              <path class="st76" d="M33.7,25.9c3.7-1.8,7.7-4.4,11.2-2.1.6.4,1.1,1,1.6,1.7,2.8,4.4,4.8,11.7,9,8.6,3.4-2.5,5.9-3.7,7.9-3.8,2.4-.1,8.4,1,6.6-1.2"/>
              <path class="st374" d="M33.7,25.9c3.7-1.8,7.7-4.3,11.2-2.1.6.4,1.1,1,1.6,1.7,2.8,4.4,4.8,11.7,9,8.7,3.5-2.5,5.9-3.8,8-3.9,2.4-.1,8.5,1,6.6-1.2"/>
              <path class="st8" d="M33.7,25.9c3.7-1.8,7.7-4.3,11.2-2.1.6.4,1.1,1,1.6,1.7,2.8,4.3,4.8,11.7,8.9,8.7,3.5-2.5,6-4,8-3.9,2.4.1,8.5,1,6.6-1.2"/>
              <path class="st191" d="M33.7,25.9c3.7-1.8,7.7-4.2,11.2-2.1.6.4,1.1,1,1.6,1.7,2.8,4.3,4.8,11.7,8.9,8.7,3.5-2.5,6-4,8-3.9,2.4.1,8.6,1.1,6.7-1.2"/>
              <path class="st236" d="M33.7,25.9c3.6-1.8,7.7-4.2,11.1-2,.6.4,1.1,1,1.6,1.7,2.8,4.3,4.7,11.7,8.8,8.7,3.5-2.5,6.1-4,8.1-3.9,2.4.1,8.6,1.1,6.7-1.2"/>
              <path class="st413" d="M33.7,25.9c3.6-1.8,7.6-4.2,11.1-2,.6.4,1.1,1,1.6,1.7,2.8,4.2,4.7,11.7,8.8,8.8,3.5-2.6,6.1-4.1,8.2-4,2.4.1,8.7,1.1,6.8-1.2"/>
              <path class="st458" d="M33.7,25.9c3.6-1.8,7.6-4.2,11.1-2,.5.4,1.1,1,1.6,1.7,2.8,4.2,4.7,11.7,8.8,8.8,3.6-2.6,6.1-4.1,8.2-4,2.4.2,8.8,1.1,6.8-1.2"/>
              <path class="st371" d="M33.7,25.9c3.6-1.8,7.6-4.1,11.1-2,.5.3,1.1,1,1.6,1.7,2.8,4.2,4.7,11.7,8.7,8.8,3.6-2.6,6.2-4.1,8.3-4,2.4.2,8.8,1.2,6.8-1.2"/>
              <path class="st388" d="M33.7,25.9c3.6-1.8,7.6-4.1,11-1.9.5.3,1.1,1,1.6,1.7,2.8,4.2,4.7,11.7,8.7,8.8,3.6-2.6,6.2-4.2,8.3-4,2.4.2,8.8,1.2,6.9-1.2"/>
              <path class="st89" d="M33.7,25.9c3.6-1.8,7.6-4.1,11-1.9.5.3,1.1.9,1.6,1.7,2.7,4.2,4.7,11.7,8.6,8.8,3.7-2.6,6.2-4.2,8.4-4,2.4.2,8.9,1.2,6.9-1.2"/>
              <path class="st156" d="M33.7,25.9c3.6-1.7,7.6-4,11-1.9.5.3,1.1.9,1.6,1.7,2.7,4.2,4.6,11.7,8.6,8.8,3.7-2.7,6.3-4.2,8.5-4,2.4.2,9,1.2,6.9-1.2"/>
              <path class="st72" d="M33.7,25.9c3.6-1.7,7.5-4,11-1.8.5.3,1.1.9,1.6,1.7,2.7,4.1,4.6,11.7,8.5,8.9s6.3-4.2,8.5-4c2.4.2,9,1.2,7-1.2"/>
              <path class="st226" d="M33.7,25.9c3.6-1.7,7.5-4,11-1.8.5.3,1.1.9,1.6,1.7,2.7,4.1,4.6,11.7,8.5,8.9s6.4-4.3,8.5-4.1c2.4.2,9.1,1.3,7-1.2"/>
              <path class="st220" d="M33.7,25.9c3.6-1.7,7.5-4,10.9-1.8.5.3,1.1.9,1.6,1.6,2.7,4.1,4.6,11.7,8.4,8.9s6.4-4.3,8.6-4.1c2.4.2,9.2,1.3,7.1-1.2"/>
              <path class="st227" d="M33.7,25.9c3.6-1.7,7.5-3.9,10.9-1.7.5.3,1.1.9,1.5,1.6,2.7,4.1,4.6,11.7,8.4,8.9s6.5-4.4,8.7-4.1c2.4.3,9.2,1.3,7.1-1.2"/>
              <path class="st35" d="M33.7,25.9c3.6-1.7,7.5-3.9,10.9-1.7.5.3,1.1.9,1.5,1.6,2.7,4.1,4.5,11.7,8.3,9s6.5-4.4,8.7-4.1c2.4.3,9.3,1.4,7.1-1.2"/>
              <path class="st90" d="M33.7,25.9c3.6-1.7,7.5-3.9,10.9-1.7.5.3,1,.9,1.5,1.6,2.6,4,4.5,11.7,8.3,9s6.5-4.4,8.8-4.1c2.4.3,9.3,1.4,7.2-1.2"/>
              <path class="st414" d="M33.7,25.9c3.6-1.7,7.4-3.8,10.9-1.7.5.3,1,.9,1.5,1.6,2.6,4,4.5,11.7,8.2,9,3.9-2.8,6.6-4.4,8.8-4.2,2.4.3,9.4,1.4,7.2-1.2"/>
              <path class="st88" d="M33.7,25.9c3.6-1.7,7.4-3.8,10.8-1.6.5.3,1,.9,1.5,1.6,2.6,4,4.5,11.7,8.2,9,3.9-2.8,6.6-4.5,8.9-4.2,2.4.3,9.5,1.4,7.2-1.2"/>
              <path class="st290" d="M33.7,25.9c3.6-1.7,7.4-3.8,10.8-1.6.5.3,1,.9,1.5,1.6,2.6,4,4.5,11.7,8.1,9.1,3.9-2.8,6.7-4.5,8.9-4.2,2.4.3,9.5,1.4,7.3-1.2"/>
              <path class="st357" d="M33.7,25.9c3.6-1.7,7.4-3.7,10.8-1.6.5.3,1,.9,1.5,1.6,2.6,4,4.4,11.7,8.1,9.1,4-2.8,6.7-4.6,9-4.2,2.3.3,9.6,1.5,7.3-1.3"/>
              <path class="st146" d="M33.7,25.9c3.6-1.7,7.4-3.7,10.8-1.6.5.3,1,.9,1.5,1.6,2.6,4,4.4,11.7,8,9.1,4-2.8,6.8-4.6,9-4.2s9.6,1.5,7.3-1.3"/>
              <path class="st179" d="M33.7,25.9c3.6-1.6,7.3-3.7,10.7-1.5.5.3,1,.9,1.5,1.6,2.6,3.9,4.4,11.7,8,9.1,4-2.8,6.8-4.6,9.1-4.2,2.3.4,9.7,1.5,7.4-1.3"/>
              <path class="st102" d="M33.7,25.9c3.6-1.6,7.3-3.6,10.7-1.5.5.3,1,.9,1.5,1.6,2.5,3.9,4.4,11.7,8,9.1,4-2.8,6.8-4.6,9.1-4.3,2.3.4,9.8,1.5,7.4-1.3"/>
              <path class="st284" d="M33.7,25.9c3.6-1.6,7.3-3.6,10.7-1.5.5.3,1,.9,1.5,1.6,2.5,3.9,4.4,11.7,7.9,9.2,4-2.9,6.9-4.7,9.2-4.3,2.3.4,9.8,1.6,7.5-1.3"/>
              <path class="st34" d="M33.7,25.9c3.6-1.6,7.3-3.6,10.7-1.4.5.3,1,.9,1.5,1.6,2.5,3.9,4.3,11.7,7.9,9.2,4.1-2.9,6.9-4.7,9.2-4.3s9.9,1.6,7.5-1.3"/>
              <path class="st392" d="M33.7,25.9c3.6-1.6,7.3-3.5,10.6-1.4.5.3,1,.9,1.5,1.6,2.5,3.8,4.3,11.7,7.8,9.2,4.1-2.9,7-4.7,9.3-4.4,2.3.4,10,1.6,7.6-1.3"/>
              <path class="st105" d="M33.7,25.9c3.6-1.6,7.3-3.5,10.6-1.4s5.1,13.8,9.3,10.8,7-4.8,9.4-4.4,10,1.6,7.6-1.3"/>
              <path class="st405" d="M33.7,25.9c3.6-1.6,7.2-3.5,10.6-1.4,3.4,2.1,5.1,13.6,9.2,10.8,4.1-2.8,7-4.6,9.4-4.2s10,1.5,7.6-1.4"/>
              <path class="st126" d="M33.7,25.9c3.6-1.6,7.2-3.4,10.6-1.3,3.3,2.1,5.1,13.5,9.2,10.8s7-4.5,9.4-4.2,10,1.3,7.7-1.5"/>
              <path class="st250" d="M33.7,25.9c3.5-1.6,7.2-3.4,10.5-1.2,3.3,2.1,5.1,13.3,9.2,10.8s7-4.3,9.5-4.1c2.4.2,9.9,1.2,7.7-1.6"/>
              <path class="st448" d="M33.7,25.9c3.5-1.6,7.1-3.3,10.5-1.2,3.3,2.1,5.1,13.2,9.2,10.7s7-4.2,9.5-4c2.5.2,9.9,1,7.7-1.7"/>
              <path class="st306" d="M33.7,26c3.5-1.6,7.1-3.2,10.4-1.1,3.3,2.1,5.1,13,9.2,10.7s7.1-4,9.5-3.9c2.5.2,9.9.8,7.8-1.8"/>
              <path class="st101" d="M33.7,26.1c3.5-1.5,7-3.2,10.4-1,3.3,2.1,5.2,12.8,9.2,10.7s7.1-3.9,9.6-3.8,9.9.7,7.8-1.9"/>
              <path class="st71" d="M33.7,26.1c3.4-1.5,7-3.1,10.4-1,3.3,2.1,5.2,12.7,9.2,10.6s7.1-3.7,9.6-3.7c2.5,0,9.9.5,7.9-2"/>
              <path class="st385" d="M33.8,26.1c3.4-1.5,7-3.1,10.3-1,3.3,2.1,5.2,12.6,9.1,10.6s7.1-3.5,9.7-3.6,9.9.4,7.9-2"/>
              <path class="st74" d="M33.8,26.2c3.4-1.5,6.9-3.1,10.3-.9,3.2,2.1,5.2,12.4,9.2,10.6s7.1-3.5,9.7-3.5c2.6,0,9.9.2,8-2.2"/>
              <path class="st343" d="M33.8,26.2c3.3-1.5,6.8-3,10.2-.8,3.2,2,5.2,12.2,9.1,10.6s7.1-3.3,9.8-3.4c2.8,0,9.8,0,8-2.3"/>
              <path class="st200" d="M33.8,26.2c3.3-1.5,6.8-2.9,10.2-.8,3.2,2,5.2,12.1,9.1,10.5s7.2-3.2,9.8-3.3c2.8-.2,9.9,0,8-2.4"/>
              <path class="st134" d="M33.8,26.3c3.3-1.5,6.8-2.9,10.2-.7,3.2,2,5.2,11.9,9.1,10.5s7.2-3,9.8-3.2c2.9-.2,9.8-.2,8.1-2.5"/>
              <path class="st194" d="M33.8,26.3c3.3-1.4,6.7-2.9,10.1-.6,3.2,2,5.2,11.8,9.1,10.5s7.2-2.9,9.9-3.1c2.9-.2,9.8-.4,8.1-2.5"/>
              <path class="st282" d="M33.8,26.3c3.2-1.4,6.7-2.8,10.1-.6,3.2,2,5.2,11.6,9.1,10.4s7.2-2.7,10-3c2.9-.3,9.8-.5,8.2-2.6"/>
              <path class="st460" d="M33.8,26.4c3.2-1.4,6.7-2.8,10.1-.5,3.2,2,5.2,11.4,9.1,10.4s7.2-2.6,10-2.9c3-.4,9.8-.7,8.2-2.7"/>
              <path class="st36" d="M33.8,26.4c3.2-1.4,6.6-2.7,10-.5,3.2,2,5.2,11.3,9.1,10.4s7.2-2.4,10-2.8c3-.4,9.8-.9,8.3-2.8"/>
              <path class="st12" d="M33.8,26.4c3.2-1.4,6.6-2.6,10-.4,3.2,2,5.2,11.1,9,10.4s7.2-2.3,10.1-2.7c3.1-.5,9.8-1,8.3-2.9"/>
              <path class="st95" d="M33.8,26.4c3.1-1.4,6.5-2.6,10-.4,3.1,2,5.2,11,9,10.3s7.2-2.1,10.1-2.6c3.1-.5,9.8-1.2,8.3-3"/>
              <path class="st258" d="M33.8,26.5c3.1-1.4,6.5-2.5,9.9-.3,3.1,2,5.2,10.8,9,10.3s7.2-2,10.2-2.5c3.1-.5,9.7-1.3,8.4-3.1"/>
              <path class="st46" d="M33.8,26.5c3.1-1.4,6.5-2.5,9.8-.2,3.1,2,5.2,10.7,9,10.3s7.3-1.9,10.2-2.4c3.2-.6,9.7-1.5,8.4-3.2"/>
              <path class="st417" d="M33.8,26.5c3-1.3,6.4-2.5,9.8-.2,3.1,2,5.2,10.5,9,10.2s7.3-1.7,10.2-2.3c3.2-.7,9.7-1.7,8.5-3.3"/>
              <path class="st400" d="M33.8,26.6c3-1.3,6.4-2.4,9.8-.1,3.1,2,5.2,10.4,9,10.2s7.3-1.6,10.3-2.2c3.3-.7,9.7-1.8,8.5-3.4"/>
              <path class="st108" d="M33.8,26.6c3-1.3,6.3-2.3,9.8,0,3.1,2,5.3,10.1,9,10.2s7.3-1.4,10.3-2.1c3.3-.8,9.7-2,8.6-3.5"/>
              <path class="st174" d="M33.8,26.6c2.9-1.3,6.3-2.3,9.7,0,3,2,5.3,10.1,8.9,10.2s7.3-1.3,10.4-2c3.4-.8,9.7-2.1,8.6-3.6"/>
              <path class="st192" d="M33.8,26.6c2.9-1.3,6.2-2.2,9.7,0,3,2,5.3,9.9,8.9,10.1s7.3-1.1,10.4-1.9c3.4-.9,9.7-2.3,8.6-3.7"/>
              <path class="st42" d="M33.8,26.6c2.9-1.2,6.2-2.2,9.6,0,3,2,5.3,9.8,8.9,10.1s7.3-1,10.4-1.8c3.5-1,9.6-2.4,8.7-3.8"/>
              <path class="st68" d="M33.8,26.6c2.9-1.2,6.2-2.1,9.6.1,3,2,5.3,9.6,8.9,10.1s7.4-.9,10.5-1.7c3.5-1,9.6-2.6,8.7-3.9"/>
              <path class="st246" d="M33.8,26.6c2.8-1.2,6.1-2.1,9.5.2,3,2,5.3,9.5,8.9,10.1s7.4-.7,10.5-1.7c3.6-1,9.6-2.7,8.8-4"/>
              <path class="st453" d="M33.8,26.6c2.8-1.2,6.1-2,9.5.2,3,2,5.3,9.3,8.9,10s7.4-.6,10.6-1.6c3.6-1.1,9.6-2.9,8.8-4.1"/>
              <path class="st266" d="M33.8,26.6c2.8-1.2,6.1-2,9.5.3,3,2,5.3,9.2,8.9,10s7.4-.4,10.6-1.4c3.6-1.2,9.6-3,8.8-4.2"/>
              <path class="st266" d="M33.8,26.6c2.8-1.2,6-1.9,9.5.4,2.9,2,5.3,9,8.8,10s7.4-.3,10.6-1.3c3.7-1.2,9.6-3.2,8.9-4.2"/>
              <path class="st58" d="M33.8,26.6c2.7-1.2,6-1.9,9.4.4,2.9,1.9,5.3,8.9,8.8,9.9s7.4-.2,10.7-1.2c3.7-1.3,9.6-3.3,8.9-4.4"/>
              <path class="st153" d="M33.8,26.6c2.7-1.2,5.9-1.8,9.4.5,2.9,1.9,5.3,8.7,8.8,9.9,3.7,1.2,7.4,0,10.7-1.2,3.8-1.3,9.6-3.5,9-4.4"/>
              <path class="st342" d="M33.8,26.5c2.7-1.1,5.9-1.8,9.3.5,2.9,1.9,5.3,8.6,8.8,9.9,3.7,1.4,7.5.2,10.8-1.1,3.8-1.4,9.6-3.7,9-4.5"/>
              <path class="st379" d="M33.8,26.5c2.6-1.1,5.8-1.7,9.3.6,2.9,1.9,5.3,8.4,8.8,9.9,3.7,1.5,7.5.3,10.8-1,3.9-1.4,9.6-3.8,9.1-4.6"/>
              <path class="st107" d="M33.8,26.5c2.6-1.1,5.8-1.7,9.2.6,2.9,1.9,5.3,8.3,8.8,9.8,3.6,1.7,7.5.4,10.9-.9,3.9-1.5,9.5-4,9.1-4.7"/>
              <path class="st10" d="M33.8,26.5c2.6-1.1,5.8-1.6,9.2.7,2.9,1.9,5.4,8.1,8.8,9.8,3.6,1.8,7.5.6,10.9-.8,3.9-1.6,9.5-4.1,9.2-4.8"/>
              <path class="st118" d="M33.8,26.4c2.5-1.1,5.7-1.6,9.2.8,2.8,1.9,5.4,8,8.8,9.8,3.6,1.9,7.5.7,11-.7,4-1.6,9.5-4.3,9.2-4.9"/>
              <path class="st225" d="M33.8,26.4c2.5-1.1,5.7-1.5,9.1.8,2.8,1.9,5.4,7.8,8.8,9.7,3.6,2,7.5.9,11-.6,4-1.7,9.5-4.4,9.2-5"/>
              <path class="st18" d="M33.8,26.4c2.5-1.1,5.6-1.5,9.1.9,2.8,1.9,5.4,7.7,8.7,9.7,3.6,2.2,7.5,1,11-.5,4.1-1.7,9.5-4.6,9.3-5.1"/>
              <path class="st171" d="M33.8,26.4c2.5-1,5.6-1.4,9.1.9,2.8,1.9,5.4,7.5,8.7,9.7,3.6,2.3,7.6,1.1,11.1-.4,4.1-1.8,9.5-4.7,9.3-5.2"/>
              <path class="st166" d="M33.8,26.4c2.4-1,5.5-1.4,9,1,2.8,1.9,5.4,7.4,8.7,9.7,3.6,2.5,7.6,1.3,11.1-.3,4.2-1.8,9.5-4.9,9.4-5.3"/>
              <path class="st269" d="M33.8,26.3c2.4-1,5.5-1.3,9,1,2.8,1.9,5.4,7.2,8.7,9.6,3.5,2.6,7.6,1.4,11.2-.2,4.2-1.9,9.4-5,9.4-5.4"/>
              <path class="st375" d="M33.8,26.3c2.4-1,5.5-1.2,8.9,1.1,2.8,1.9,5.4,7.1,8.7,9.6,3.5,2.7,7.6,1.6,11.2,0,4.2-1.9,9.4-5.2,9.4-5.5"/>
              <path class="st313" d="M33.8,26.3c2.4-1,5.4-1.2,8.9,1.2,2.8,1.9,5.4,6.9,8.7,9.6,3.5,2.8,7.6,1.7,11.3,0,4.3-2,9.4-5.4,9.5-5.6"/>
              <path class="st19" d="M33.8,26.2c2.3-1,5.4-1.2,8.9,1.2,2.8,1.9,5.4,6.8,8.7,9.6,3.5,3,7.6,1.8,11.3,0,4.3-2,9.4-5.5,9.5-5.7"/>
              <path class="st419" d="M33.8,26.2c2.3-1,5.4-1.1,8.8,1.2,2.7,1.9,5.4,6.6,8.6,9.5,3.5,3.1,7.6,2,11.3.2,4.3-2.1,9.4-5.7,9.6-5.8"/>
              <path class="st312" d="M33.8,26.2c2.3-1,5.3-1.1,8.8,1.3,2.7,1.9,5.4,6.5,8.6,9.5,3.5,3.2,7.7,2.1,11.4.3,4.4-2.2,9.4-5.8,9.6-5.9"/>
              <path class="st13" d="M33.8,26.2c2.2-.9,5.3-1,8.8,1.4,2.7,1.8,5.4,6.3,8.6,9.5,3.5,3.4,7.7,2.3,11.4.4,4.4-2.2,9.4-6,9.6-6"/>
              <path class="st213" d="M33.8,26.1c2.2-.9,5.2-1,8.7,1.4,2.7,1.8,5.4,6.2,8.6,9.4,3.5,3.5,7.7,2.4,11.5.5,4.5-2.3,9.3-6.1,9.7-6.1"/>
              <path class="st383" d="M33.8,26.1c2.2-.9,5.2-.9,8.7,1.5,2.7,1.8,5.4,6.1,8.6,9.4,3.4,3.6,7.7,2.5,11.5.6,4.5-2.3,9.3-6.3,9.7-6.1"/>
              <path class="st257" d="M33.7,26.1c2.1-.9,5.1-.9,8.6,1.6,2.7,1.8,5.4,5.9,8.6,9.4,3.4,3.8,7.7,2.7,11.5.7,4.6-2.4,9.3-6.5,9.8-6.2"/>
              <path class="st404" d="M33.7,26c2.1-.9,5.1-.8,8.6,1.6,2.7,1.8,5.4,5.8,8.6,9.4,3.4,3.9,7.7,2.8,11.6.8,4.6-2.5,9.3-6.6,9.8-6.3"/>
              <path class="st106" d="M33.7,26c2.1-.9,5-.8,8.6,1.6,2.6,1.8,5.4,5.6,8.5,9.3,3.4,4,7.7,3,11.6.9,4.6-2.5,9.3-6.8,9.9-6.4"/>
              <path class="st163" d="M33.7,25.9c2-.9,5-.7,8.5,1.7,2.6,1.8,5.4,5.5,8.5,9.3,3.4,4.2,7.7,3.1,11.7,1,4.7-2.6,9.3-6.9,9.9-6.5"/>
              <path class="st14" d="M33.7,25.9c2-.8,5-.6,8.5,1.8,2.6,1.8,5.4,5.3,8.5,9.3,3.4,4.3,7.7,3.2,11.7,1.1,4.7-2.6,9.2-7.1,9.9-6.6"/>
              <path class="st211" d="M33.7,25.9c2-.8,4.9-.6,8.5,1.8,2.6,1.8,5.4,5.2,8.5,9.2,3.3,4.4,7.7,3.4,11.8,1.2,4.8-2.7,9.2-7.2,10-6.7"/>
              <path class="st52" d="M33.7,25.9c2-.8,4.9-.5,8.4,1.9,2.6,1.8,5.4,5,8.5,9.2,3.3,4.6,7.8,3.5,11.8,1.2,4.8-2.7,9.2-7.4,10-6.8"/>
              <path class="st195" d="M33.7,25.9c2-.8,4.9-.5,8.4,2,2.6,1.8,5.4,4.9,8.5,9.2,3.3,4.7,7.8,3.7,11.8,1.3,4.9-2.8,9.2-7.5,10.1-6.9"/>
              <path class="st53" d="M33.7,25.9c3.3-1.4,9.6.6,16.8,11.2,7.2,10.6,20.3-6.8,22-5.6"/>
              <path class="st224" d="M33.7,25.9c3.3-1.3,9.5.6,16.7,11.1,7.2,10.5,20.3-6.6,22.1-5.5"/>
              <path class="st135" d="M33.7,25.9c3.3-1.3,9.5.6,16.7,11.1s20.3-6.5,22.1-5.5"/>
              <path class="st188" d="M33.7,25.9c3.3-1.3,9.5.7,16.6,11.1,7.1,10.4,20.3-6.3,22.2-5.5"/>
              <path class="st128" d="M33.6,25.9c3.3-1.3,9.5.7,16.6,11.1,7.1,10.4,20.3-6.1,22.3-5.5"/>
              <path class="st137" d="M33.6,25.9c3.3-1.3,9.5.7,16.5,11.1,7,10.3,20.3-6,22.3-5.5"/>
              <path class="st469" d="M33.6,26c3.3-1.3,9.5.7,16.5,11,7,10.3,20.3-5.8,22.4-5.5"/>
              <path class="st100" d="M33.6,26c3.3-1.3,9.5.8,16.4,11s20.2-5.7,22.5-5.5"/>
              <path class="st331" d="M33.6,26c3.3-1.3,9.5.8,16.4,11s20.2-5.5,22.5-5.5"/>
              <path class="st427" d="M33.6,26c3.3-1.2,9.5.8,16.3,11,6.9,10.2,20.2-5.3,22.6-5.5"/>
              <path class="st129" d="M33.5,26c3.3-1.2,9.5.9,16.3,11,6.8,10.1,20.2-5.2,22.7-5.5"/>
              <path class="st249" d="M33.5,26c3.3-1.2,9.4.9,16.2,11,6.8,10.1,20.2-5,22.7-5.5"/>
              <path class="st391" d="M33.5,26c3.3-1.2,9.4.9,16.2,11s20.2-4.8,22.8-5.5"/>
              <path class="st279" d="M33.5,26c3.3-1.2,9.4.9,16.1,11,6.7,10,20.2-4.7,22.9-5.5"/>
              <path class="st340" d="M33.5,26c3.3-1.2,9.4,1,16.1,10.9s20.2-4.5,22.9-5.5"/>
              <path class="st436" d="M33.5,26.1c3.3-1.2,9.4,1,16,10.9,6.6,10,20.1-4.3,23-5.5"/>
              <path class="st157" d="M33.5,26.1c3.3-1.2,9.4,1,16,10.9,6.6,9.9,20.1-4.2,23.1-5.5"/>
              <path class="st365" d="M33.5,26.1c3.3-1.2,9.4,1,15.9,10.9s20.1-4,23.1-5.5"/>
              <path class="st55" d="M33.4,26.1c3.3-1.2,9.4,1,15.9,10.9s20.1-3.9,23.2-5.4"/>
              <path class="st305" d="M33.4,26.1c3.3-1.2,9.3,1.1,15.8,10.8,6.5,9.8,20.1-3.7,23.3-5.4"/>
              <path class="st438" d="M33.4,26.1c3.3-1.2,9.3,1.1,15.8,10.8s20.1-3.5,23.3-5.4"/>
              <path class="st159" d="M33.4,26.3c3.3-1.2,9.3,1.1,15.7,10.8,6.4,9.7,20.1-3.4,23.4-5.4"/>
              <path class="st3" d="M33.3,26.3c3.3-1.2,9.3,1.1,15.7,10.8,6.4,9.7,20.1-3.2,23.5-5.4"/>
              <path class="st345" d="M33.3,26.4c3.3-1.2,9.3,1.2,15.6,10.8,6.3,9.6,20-3,23.5-5.4"/>
              <path class="st27" d="M33.3,26.4c3.3-1.2,9.3,1.2,15.6,10.8,6.3,9.6,20-2.9,23.6-5.4"/>
              <path class="st307" d="M33.3,26.4c3.3-1.2,9.3,1.2,15.5,10.7s20-2.7,23.7-5.4"/>
              <path class="st162" d="M33.3,26.4c3.3-1.1,9.3,1.2,15.5,10.7,6.2,9.5,20-2.5,23.8-5.4"/>
              <path class="st84" d="M33.3,26.4c3.3-1.1,9.2,1.2,15.4,10.7,6.2,9.5,20-2.4,23.8-5.4"/>
              <path class="st131" d="M33.3,26.4c3.3-1.1,9.2,1.3,15.4,10.7s20-2.2,23.9-5.4"/>
              <path class="st232" d="M33.3,26.5c3.3-1.1,9.2,1.3,15.3,10.7,6.1,9.4,20-2,23.9-5.4"/>
              <path class="st387" d="M33.2,26.5c3.3-1.1,9.2,1.4,15.2,10.7,6,9.3,20-1.9,24-5.4"/>
              <path class="st81" d="M33.2,26.5c3.3-1.1,9.2,1.4,15.2,10.7,6,9.3,20-1.7,24-5.4"/>
              <path class="st418" d="M33.2,26.5c3.3-1.1,9.2,1.4,15.1,10.6s20-1.6,24.1-5.3"/>
              <path class="st119" d="M33.2,26.5c3.3-1.1,9.2,1.4,15.1,10.6,5.9,9.2,19.9-1.4,24.2-5.3"/>
              <path class="st25" d="M33.2,26.6c3.3-1.1,9.2,1.4,15.1,10.6s19.9-1.2,24.3-5.3"/>
              <path class="st301" d="M33.2,26.6c3.2-1.1,9.2,1.5,15,10.6,5.8,9.1,19.9-1.1,24.3-5.3"/>
              <path class="st234" d="M33.1,26.6c3.2-1.1,9.2,1.5,14.9,10.6s19.9-.9,24.4-5.3"/>
              <path class="st219" d="M33.1,26.6c3.2-1.1,9.2,1.5,14.9,10.6,5.8,9.1,19.9-.8,24.5-5.3"/>
              <path class="st318" d="M33.1,26.6c3.2-1.1,9.1,1.5,14.8,10.5s19.9-.6,24.5-5.3"/>
              <path class="st363" d="M33.1,26.6c3.2-1,9.1,1.6,14.8,10.5s19.9-.4,24.6-5.3"/>
              <path class="st239" d="M33.1,26.7c3.2-1,9.1,1.6,14.8,10.5s19.9-.3,24.7-5.3"/>
              <path class="st244" d="M33.1,26.7c3.2-1,9.1,1.6,14.7,10.5,5.6,8.9,19.8,0,24.7-5.3"/>
              <path class="st82" d="M33,26.7c3.2-1,9.1,1.6,14.6,10.5,5.6,8.8,19.8,0,24.8-5.3"/>
              <path class="st267" d="M33,26.7c3.2-1,9.1,1.6,14.6,10.5,5.5,8.8,19.8.2,24.9-5.3"/>
              <path class="st116" d="M33,26.8c3.2-1,9.1,1.7,14.5,10.4,5.5,8.8,19.8.4,24.9-5.3"/>
              <path class="st356" d="M33,26.8c3.2-1,9.1,1.7,14.5,10.4,5.4,8.7,19.8.5,25-5.2"/>
              <path class="st421" d="M33,26.8c3.2-1,9,1.7,14.4,10.4,5.4,8.7,19.8.7,25.1-5.2"/>
              <path class="st462" d="M33,26.8c3.2-1,9,1.7,14.4,10.4,5.4,8.7,19.8.9,25.1-5.2"/>
              <path class="st17" d="M33,26.8c3.2-1,9,1.8,14.3,10.4,5.3,8.6,19.8,1,25.2-5.2"/>
              <path class="st285" d="M33,26.8c3.2-1,9,1.8,14.3,10.3,5.3,8.5,19.7,1.2,25.3-5.2"/>
              <path class="st317" d="M32.9,26.8c3.2-1,9,1.8,14.2,10.3,5.2,8.5,19.7,1.4,25.3-5.2"/>
              <path class="st143" d="M32.9,26.9c3.2-1,9,1.9,14.2,10.3s19.7,1.5,25.4-5.2"/>
              <path class="st349" d="M32.9,26.9c3.2-1,9,1.9,14.1,10.3s19.7,1.7,25.5-5.2"/>
              <path class="st210" d="M32.9,26.9c3.2-1,9,1.9,14.1,10.3s19.7,1.9,25.5-5.2"/>
              <path class="st353" d="M32.9,26.9c3.2-1,8.9,1.9,14,10.3,5.1,8.3,19.7,2,25.6-5.2"/>
              <path class="st439" d="M32.9,26.9c3.2-1,8.9,2,14,10.2,5,8.3,19.7,2.2,25.7-5.2"/>
              <path class="st214" d="M32.8,26.9c3.2-.9,8.9,2,13.9,10.2,5,8.3,19.7,2.4,25.7-5.2"/>
              <path class="st303" d="M32.8,27c3.2-.9,8.9,2,13.9,10.2,5,8.2,19.7,2.5,25.8-5.2"/>
              <path class="st203" d="M32.8,27c3.2-.9,8.9,2,13.8,10.2,4.9,8.2,19.7,2.7,25.9-5.1"/>
              <path class="st85" d="M32.8,27c3.2-.9,8.9,2,13.8,10.2,4.9,8.1,19.6,2.8,25.9-5.1"/>
              <path class="st315" d="M32.8,27c3.2-.9,8.9,2.1,13.7,10.2s19.6,3,26-5.1"/>
              <path class="st403" d="M32.8,27c3.2-.9,8.9,2.1,13.6,10.2,4.8,8,19.6,3.2,26.1-5.1"/>
              <path class="st338" d="M32.7,27c3.2-.9,8.8,2.1,13.6,10.2,4.8,8,19.6,3.3,26.1-5.1"/>
              <path class="st133" d="M32.7,27c3.2-.9,8.8,2.1,13.6,10.1,4.7,8,19.6,3.5,26.2-5.1"/>
              <path class="st326" d="M32.7,27c3.2-.9,8.8,2.2,13.5,10.1,4.7,7.9,19.6,3.7,26.3-5.1"/>
              <path class="st308" d="M32.7,27c3.2-.9,8.8,2.2,13.5,10.1s19.6,3.8,26.3-5.1"/>
              <path class="st332" d="M32.7,27.1c3.2-.9,8.8,2.2,13.4,10.1,4.6,7.8,19.6,4,26.4-5.1"/>
              <path class="st430" d="M32.7,27.1c3.2-.9,8.8,2.3,13.3,10.1,4.6,7.8,19.5,4.2,26.5-5.1"/>
              <path class="st61" d="M32.7,27.1c3.2-.8,8.8,2.3,13.3,10,4.5,7.8,19.5,4.3,26.5-5.1"/>
              <path class="st183" d="M32.7,27.1c3.2-.8,8.8,2.3,13.2,10,4.5,7.7,19.5,4.5,26.6-5.1"/>
              <path class="st304" d="M32.6,27.1c3.2-.8,8.8,2.3,13.2,10,4.4,7.7,19.5,4.7,26.7-5.1"/>
              <path class="st189" d="M32.6,27.1c3.2-.8,8.8,2.4,13.2,10s19.5,4.8,26.8-5"/>
              <path class="st291" d="M32.6,27.1c3.2-.8,8.7,2.4,13.1,10s19.5,5,26.8-5"/>
              <path class="st57" d="M32.6,27.1c3.2-.8,8.7,2.4,13,10,4.3,7.6,19.5,5.1,26.9-5"/>
              <path class="st253" d="M32.6,27.2c3.2-.8,8.7,2.4,13,9.9,4.3,7.5,19.5,5.3,26.9-5"/>
              <path class="st45" d="M32.6,27.2c3.2-.8,8.7,2.5,12.9,9.9,4.2,7.5,19.4,5.5,27-5"/>
              <path class="st2" d="M32.5,27.2c3.2-.8,8.7,2.5,12.9,9.9,4.2,7.4,19.4,5.6,27-5"/>
              <path class="st92" d="M32.5,27.2c3.2-.8,8.7,2.5,12.8,9.9s19.4,5.8,27.1-5"/>
              <path class="st7" d="M32.5,27.2c3.2-.8,8.7,2.5,12.8,9.9,4.1,7.4,19.4,5.9,27.2-5"/>
              <path class="st455" d="M32.5,27.2c3.2-.8,8.7,2.5,12.7,9.8s19.4,6.1,27.3-5"/>
              <path class="st77" d="M32.5,27.2c3.2-.8,8.6,2.6,12.7,9.8,4,7.3,19.4,6.3,27.3-5"/>
              <path class="st33" d="M32.5,27.2c3.2-.7,8.6,2.6,12.6,9.8s19.4,6.4,27.4-5"/>
              <path class="st452" d="M32.4,27.2c3.2-.7,8.6,2.6,12.6,9.8,4,7.2,19.4,6.6,27.5-5"/>
              <path class="st144" d="M32.4,27.2c3.2-.7,8.6,2.6,12.5,9.8,4,7.2,19.3,6.8,27.5-5"/>
              <path class="st145" d="M32.4,27.2c3.2-.7,8.6,2.7,12.5,9.8,3.9,7.1,19.3,6.9,27.6-5"/>
              <path class="st327" d="M32.4,27.3c3.2-.7,8.6,2.7,12.4,9.8,3.9,7.1,19.3,7.1,27.7-5"/>
              <path class="st186" d="M32.4,27.3c3.2-.7,8.6,2.7,12.4,9.8,3.8,7,19.3,7.2,27.7-5"/>
              <path class="st185" d="M32.4,27.3c3.2-.7,8.6,2.8,12.3,9.7s19.3,7.4,27.8-5"/>
              <path class="st370" d="M32.3,27.3c3.2-.7,8.5,2.8,12.3,9.7s19.3,7.6,27.9-5"/>
              <path class="st109" d="M32.3,27.3c3.2-.7,8.5,2.8,12.2,9.7,3.7,6.9,19.3,7.7,27.9-4.9"/>
              <path class="st38" d="M32.3,27.3c3.2-.7,8.5,2.8,12.2,9.7,3.6,6.9,19.3,7.9,28-4.9"/>
              <path class="st341" d="M32.3,27.3c3.2-.7,8.5,2.9,12.1,9.7,3.6,6.8,19.2,8.1,28.1-4.9"/>
              <path class="st471" d="M32.3,27.3c3.2-.7,8.5,2.9,12.1,9.7s19.2,8.2,28.1-4.9"/>
              <path class="st132" d="M32.3,27.3c3.2-.7,8.5,2.9,12,9.6s19.2,8.4,28.2-4.9"/>
              <path class="st177" d="M32.2,27.3c3.2-.6,8.5,2.9,12,9.6s19.2,8.6,28.3-4.9"/>
              <path class="st241" d="M32.2,27.2c3.2-.6,8.5,2.9,11.9,9.6,3.4,6.7,19.2,8.7,28.3-4.9"/>
              <path class="st111" d="M32.2,27.2c3.2-.6,8.5,3,11.9,9.6,3.4,6.6,19.2,8.9,28.4-4.9"/>
              <path class="st15" d="M32.2,27.2c3.2-.6,8.5,3,11.8,9.6,3.4,6.6,19.2,9.1,28.5-4.9"/>
              <path class="st123" d="M32.2,27.2c3.2-.6,8.5,3,11.8,9.5,3.3,6.5,19.2,9.2,28.5-4.9"/>
              <path class="st268" d="M32.2,27.2c3.2-.6,8.4,3,11.7,9.6s19.2,9.4,28.6-4.9"/>
              <path class="st21" d="M32.2,27.2c3.2-.6,8.4,3.1,11.7,9.5s19.2,9.5,28.7-4.9"/>
              <path class="st161" d="M32.2,27.3c3.2-.6,8.4,3.1,11.6,9.5,3.2,6.4,19.1,9.7,28.7-4.9"/>
              <path class="st175" d="M32.1,27.3c3.2-.6,8.4,3.1,11.6,9.5s19.1,9.9,28.8-4.8"/>
              <path class="st136" d="M32.1,27.3c3.2-.6,8.4,3.1,11.5,9.5,3.1,6.3,19.1,10,28.9-4.8"/>
              <path class="st348" d="M32.1,27.3c3.2-.6,8.3,3.1,11.5,9.5,3.1,6.3,19.1,10.2,29-4.8"/>
              <path class="st158" d="M32.1,27.3c3.2-.6,8.3,3.2,11.4,9.5s19.1,10.4,29-4.8"/>
              <path class="st5" d="M32.1,27.3c3.2-.5,8.3,3.2,11.3,9.4s19.1,10.5,29.1-4.8"/>
              <path class="st265" d="M32.1,27.3c3.2-.5,8.3,3.2,11.3,9.4s19.1,10.7,29.1-4.8"/>
              <path class="st172" d="M32,27.4c3.2-.5,8.3,3.3,11.3,9.4,2.9,6.1,19.1,10.9,29.2-4.8"/>
              <path class="st346" d="M32,27.4c3.2-.5,8.3,3.3,11.2,9.4s19,11,29.3-4.8"/>
              <path class="st316" d="M32,27.4c1.8-.3,4.3.9,6.7,3.1,1.7,1.6,3.3,3.8,4.5,6.3,1.9,3.9,9.3,7.4,17,5,4.3-1.3,8.7-4.3,12.3-9.9"/>
              <path class="st190" d="M32,27.4c1.9-.3,4.3.8,6.7,3.1,1.7,1.6,3.3,3.8,4.5,6.3,1.9,4,9.3,7.4,17,5,4.4-1.4,8.7-4.3,12.3-9.9"/>
              <path class="st23" d="M32,27.4c1.9-.3,4.3.8,6.7,3.1,1.7,1.6,3.3,3.8,4.5,6.3,1.9,4,9.3,7.4,17,5,4.5-1.4,8.7-4.4,12.3-9.9"/>
              <path class="st80" d="M32,27.5c1.9-.3,4.3.8,6.7,3.1,1.7,1.6,3.2,3.8,4.5,6.3,1.9,4,9.3,7.5,17,5,4.5-1.5,8.7-4.4,12.3-9.9"/>
              <path class="st337" d="M32,27.5c1.9-.3,4.3.8,6.7,3.1,1.7,1.6,3.2,3.8,4.5,6.3,1.9,4,9.3,7.5,17.1,4.9,4.6-1.5,8.8-4.5,12.4-9.9"/>
              <path class="st434" d="M32,27.5c1.9-.3,4.3.8,6.7,3.1,1.6,1.6,3.2,3.8,4.5,6.3,2,4,9.3,7.5,17.1,4.9,4.7-1.6,8.8-4.5,12.4-9.9"/>
              <path class="st314" d="M31.9,27.5c1.9-.3,4.3.8,6.7,3.1,1.6,1.6,3.2,3.8,4.5,6.3,2,4,9.4,7.6,17.1,4.9,4.7-1.6,8.8-4.5,12.4-9.9"/>
              <path class="st429" d="M31.9,27.5c1.9-.3,4.3.8,6.6,3.2,1.6,1.6,3.2,3.8,4.5,6.4,2,4,9.4,7.6,17.1,4.9,4.8-1.7,8.8-4.6,12.4-9.9"/>
              <path class="st20" d="M31.9,27.6c1.9-.3,4.3.8,6.6,3.2,1.6,1.6,3.2,3.8,4.5,6.4,2,4,9.4,7.6,17.1,4.8,4.9-1.7,8.9-4.6,12.4-9.9"/>
              <path class="st344" d="M31.9,27.6c1.9-.3,4.3.8,6.6,3.2,1.6,1.6,3.2,3.8,4.5,6.4,2,4,9.4,7.6,17.1,4.8,5-1.8,8.9-4.7,12.5-9.9"/>
              <path class="st151" d="M31.9,27.6c1.9-.3,4.3.8,6.6,3.2,1.6,1.6,3.2,3.8,4.5,6.4,2,4,9.4,7.6,17.2,4.8,5-1.9,8.9-4.7,12.5-9.9"/>
              <path class="st396" d="M31.8,27.6c1.9-.3,4.3.8,6.6,3.2,1.6,1.7,3.2,3.9,4.5,6.4,2,4,9.5,7.7,17.2,4.7,5.1-1.9,8.9-4.7,12.5-9.9"/>
              <path class="st289" d="M31.8,27.7c2-.3,4.3.8,6.6,3.2,1.6,1.6,3.2,3.9,4.5,6.4,2.1,4,9.5,7.7,17.2,4.7,5.2-2,9-4.8,12.5-9.9"/>
              <path class="st416" d="M31.8,27.7c2-.3,4.3.8,6.6,3.2,1.6,1.6,3.2,3.9,4.5,6.4,2.1,4,9.5,7.7,17.2,4.7,5.2-2,9-4.8,12.5-9.9"/>
              <path class="st93" d="M31.8,27.7c2-.4,4.3.8,6.6,3.2,1.5,1.7,3.2,3.9,4.5,6.4,2.1,4,9.5,7.7,17.2,4.7,5.3-2.1,9-4.8,12.5-10"/>
              <path class="st204" d="M31.8,27.7c2-.4,4.3.8,6.6,3.3,1.5,1.7,3.2,3.9,4.5,6.4,2.1,4,9.5,7.7,17.2,4.6,5.4-2.1,9.1-4.9,12.6-10"/>
              <path class="st377" d="M31.8,27.7c2-.4,4.3.8,6.6,3.3,1.5,1.7,3.2,3.9,4.5,6.4,2.1,4,9.5,7.7,17.2,4.6,5.4-2.2,9.1-4.9,12.6-10"/>
              <path class="st442" d="M31.7,27.8c2-.4,4.3.8,6.6,3.3,1.5,1.6,3.1,3.9,4.5,6.4,2.1,4,9.5,7.7,17.3,4.6,5.5-2.2,9.1-5,12.6-10"/>
              <path class="st376" d="M31.7,27.8c2-.4,4.2.7,6.6,3.3,1.5,1.6,3.1,3.9,4.5,6.5,2.1,4,9.5,7.7,17.3,4.6,5.6-2.3,9.1-5,12.6-10"/>
              <path class="st361" d="M31.7,27.8c2-.4,4.2.7,6.6,3.3,1.5,1.6,3.1,3.9,4.5,6.5,2.2,4,9.6,7.7,17.3,4.5,5.6-2.4,9.2-5,12.6-10"/>
              <path class="st44" d="M31.7,27.8c2-.4,4.2.7,6.6,3.3,1.5,1.6,3.1,3.9,4.5,6.5,2.2,4,9.6,7.8,17.3,4.5,5.7-2.4,9.2-5,12.6-10"/>
              <path class="st435" d="M31.7,27.9c2-.4,4.2.7,6.6,3.3,1.5,1.6,3.1,3.9,4.5,6.5,2.2,4,9.6,7.8,17.3,4.5,5.8-2.5,9.2-5.1,12.6-10"/>
              <path class="st70" d="M31.6,27.9c2-.4,4.2.7,6.5,3.3,1.5,1.7,3.1,3.9,4.5,6.5,2.2,4,9.6,7.8,17.3,4.4,5.8-2.5,9.2-5.1,12.7-10"/>
              <path class="st169" d="M31.6,27.9c2-.4,4.2.7,6.5,3.3,1.5,1.7,3.1,4,4.5,6.5,2.2,4,9.6,7.8,17.4,4.4,5.9-2.6,9.2-5.2,12.7-10"/>
              <path class="st99" d="M31.6,27.9c2-.4,4.2.7,6.5,3.4,1.4,1.7,3.1,4,4.5,6.5,2.2,4,9.6,7.8,17.4,4.4,6-2.7,9.3-5.2,12.7-10"/>
              <path class="st50" d="M31.6,27.9c2-.4,4.2.7,6.5,3.4,1.4,1.7,3.1,4,4.5,6.5,2.3,4,9.6,7.8,17.4,4.3,6.1-2.7,9.3-5.3,12.7-10"/>
              <path class="st366" d="M31.6,28c2.1-.4,4.2.7,6.5,3.4,1.4,1.7,3.1,4,4.5,6.5,2.3,4.1,9.7,7.8,17.4,4.3,6.1-2.8,9.3-5.3,12.7-10"/>
              <path class="st242" d="M31.6,28c2.1-.4,4.2.7,6.5,3.4,1.4,1.7,3.1,4,4.5,6.5,2.3,4.1,9.7,7.8,17.4,4.3,6.2-2.8,9.3-5.3,12.7-10"/>
              <path class="st398" d="M31.5,28c2.1-.4,4.2.7,6.5,3.4,1.4,1.7,3,4,4.5,6.5,2.3,4.1,9.7,7.8,17.4,4.2,6.2-2.9,9.4-5.4,12.8-10"/>
              <path class="st240" d="M31.5,28c2.1-.4,4.2.7,6.5,3.4,1.4,1.7,3,4,4.5,6.5,2.3,4.1,9.7,7.8,17.4,4.2,6.3-2.9,9.4-5.4,12.8-10"/>
              <path class="st254" d="M31.5,28.1c2.1-.4,4.2.7,6.5,3.4,1.4,1.7,3,4,4.5,6.6,2.3,4.1,9.7,7.8,17.4,4.2,6.4-3,9.4-5.5,12.8-10"/>
              <path class="st176" d="M31.5,28.1c2.1-.4,4.2.7,6.5,3.4,1.4,1.7,3,4,4.5,6.6,2.4,4.1,9.7,7.9,17.5,4.2,6.5-3.1,9.4-5.5,12.8-10"/>
              <path class="st329" d="M31.5,28.1c2.1-.4,4.2.7,6.5,3.5,1.4,1.7,3,4,4.5,6.5,2.4,4.1,9.7,7.9,17.5,4.2,6.5-3.1,9.5-5.5,12.8-10"/>
              <path class="st181" d="M31.5,28.1c2.1-.4,4.2.6,6.5,3.5,1.4,1.7,3,4,4.5,6.6,2.4,4.1,9.8,7.9,17.5,4.1,6.6-3.2,9.5-5.6,12.9-10"/>
              <path class="st114" d="M31.5,28.1c2.1-.4,4.2.6,6.5,3.5,1.4,1.7,3,4,4.5,6.6,2.4,4.1,9.8,7.9,17.5,4.1,6.7-3.2,9.5-5.6,12.8-10"/>
              <path class="st298" d="M31.5,28.1c2.1-.4,4.2.6,6.5,3.5,1.3,1.7,3,4,4.5,6.6,2.4,4.1,9.8,7.9,17.5,4.1,6.7-3.3,9.6-5.6,12.9-10"/>
              <path class="st394" d="M31.4,28.2c2.1-.4,4.2.6,6.5,3.5,1.3,1.7,3,4,4.5,6.6,2.4,4.1,9.8,7.9,17.5,4,6.8-3.4,9.6-5.7,12.9-10"/>
              <path class="st112" d="M31.4,28.2c2.1-.4,4.2.6,6.5,3.5,1.3,1.7,3,4,4.5,6.6,2.5,4.1,9.8,7.9,17.6,4,6.8-3.4,9.6-5.7,12.9-10"/>
              <path class="st433" d="M31.4,28.2c2.2-.4,4.2.6,6.5,3.5,1.3,1.7,3,4,4.5,6.6,2.5,4.1,9.8,7.9,17.6,4,6.9-3.5,9.6-5.8,12.9-10"/>
              <path class="st449" d="M31.4,28.2c2.2-.4,4.2.6,6.4,3.5,1.3,1.7,2.9,4.1,4.5,6.6,2.5,4.1,9.8,7.9,17.6,4,7-3.5,9.6-5.8,12.9-10"/>
              <path class="st63" d="M31.4,28.3c2.2-.4,4.2.6,6.4,3.5,1.3,1.7,2.9,4.1,4.5,6.6,2.5,4.1,9.9,7.9,17.6,3.9,7.1-3.6,9.7-5.8,12.9-10"/>
              <path class="st283" d="M31.3,28.3c2.2-.4,4.2.6,6.4,3.5,1.3,1.7,2.9,4.1,4.5,6.6,2.5,4.1,9.9,7.9,17.6,3.9,7.1-3.7,9.7-5.9,13-10"/>
              <path class="st228" d="M31.3,28.3c2.2-.4,4.2.6,6.4,3.5,1.3,1.7,2.9,4.1,4.5,6.6,2.5,4.1,9.9,7.9,17.6,3.9,7.2-3.7,9.7-5.9,13-10"/>
              <path class="st470" d="M31.3,28.3c2.2-.4,4.2.6,6.4,3.6,1.3,1.7,2.9,4.1,4.5,6.6,2.5,4.1,9.9,7.9,17.7,3.8,7.2-3.8,9.7-5.9,13-10"/>
              <path class="st41" d="M31.3,28.4c2.2-.4,4.2.6,6.4,3.6,1.3,1.7,2.9,4.1,4.5,6.6,2.5,4.1,9.9,7.9,17.7,3.8,7.3-3.9,9.8-6,13-10"/>
              <path class="st222" d="M31.3,28.4c2.2-.4,4.2.6,6.4,3.6,1.2,1.7,2.9,4.1,4.5,6.7,2.6,4.1,9.9,7.9,17.7,3.8s9.8-6,13-10"/>
              <path class="st446" d="M31.3,28.4c2.2-.4,4.2.5,6.4,3.6,1.2,1.7,2.9,4.1,4.5,6.7,2.6,4.2,9.9,7.9,17.7,3.8s9.8-6.1,13-10"/>
              <path class="st147" d="M31.2,28.4c2.2-.4,4.2.5,6.4,3.6,1.2,1.7,2.9,4.1,4.5,6.7,2.6,4.2,9.9,7.9,17.7,3.7s9.8-6.1,13.1-10"/>
              <path class="st278" d="M31.2,28.5c2.2-.4,4.2.5,6.4,3.6,1.2,1.7,2.9,4.1,4.5,6.7,2.6,4.2,10,7.9,17.7,3.7,7.8-4.2,9.8-6.1,13.1-10.1"/>
              <path class="st130" d="M31.2,28.5c2.3-.4,4.2.5,6.4,3.6,1.2,1.7,2.9,4.1,4.5,6.7,2.6,4.2,10,7.9,17.8,3.7s9.9-6.2,13.1-10.1"/>
              <path class="st263" d="M31.2,28.5c2.3-.4,4.1.5,6.4,3.6,1.2,1.7,2.8,4.1,4.5,6.7,2.6,4.2,10,7.9,17.8,3.6s9.9-6.2,13.1-10.1"/>
              <path class="st223" d="M31.2,28.5c2.3-.4,4.1.5,6.4,3.7,1.2,1.7,2.8,4.2,4.5,6.7,2.7,4.2,10,7.9,17.8,3.6s9.9-6.2,13.1-10.1"/>
              <path class="st362" d="M31.1,28.5c2.3-.4,4.1.5,6.4,3.7,1.2,1.7,2.8,4.2,4.5,6.7,2.7,4.2,10,7.9,17.8,3.6s9.9-6.3,13.2-10.1"/>
              <path class="st358" d="M31.1,28.5c2.3-.5,4.1.5,6.3,3.7,1.2,1.7,2.8,4.2,4.5,6.7,2.7,4.2,10,7.9,17.8,3.5s10-6.3,13.2-10.1"/>
              <path class="st454" d="M31.1,28.6c2.3-.5,4.1.5,6.3,3.7,1.2,1.7,2.8,4.2,4.5,6.7,2.7,4.2,10,8,17.8,3.5s10-6.4,13.2-10.1"/>
              <path class="st48" d="M31.1,28.6c2.3-.5,4.1.5,6.3,3.7,1.2,1.7,2.8,4.2,4.5,6.7,2.7,4.2,10,8,17.8,3.5s10-6.4,13.2-10.1"/>
              <path class="st274" d="M31.1,28.6c2.3-.5,4.1.5,6.3,3.7,1.2,1.7,2.8,4.2,4.5,6.8,2.7,4.2,10,8,17.8,3.5s10.1-6.4,13.2-10.1"/>
              <path class="st96" d="M31.1,28.6c2.3-.5,4.1.5,6.3,3.7,1.2,1.7,2.8,4.2,4.5,6.8,2.8,4.2,10,8,17.9,3.5s10.1-6.5,13.2-10.1"/>
              <path class="st323" d="M31.1,28.7c2.3-.5,4.1.5,6.3,3.7,1.2,1.7,2.8,4.2,4.5,6.8,2.8,4.2,10,8,17.9,3.4,8.3-4.8,10.1-6.5,13.2-10.1"/>
              <path class="st261" d="M31.1,28.7c2.3-.5,4.1.5,6.3,3.8,1.2,1.7,2.8,4.2,4.5,6.8,2.8,4.2,10,8,17.9,3.4,8.3-4.8,10.1-6.5,13.2-10.1"/>
              <path class="st352" d="M31,28.7c2.4-.5,4.1.5,6.3,3.8,1.1,1.7,2.8,4.2,4.5,6.8,2.8,4.2,10.1,8,17.9,3.4,8.4-4.9,10.2-6.6,13.3-10.1"/>
              <path class="st209" d="M31,28.7c2.4-.5,4.1.5,6.3,3.8,1.1,1.7,2.8,4.2,4.5,6.8,2.8,4.2,10.1,8,17.9,3.3,8.4-5,10.2-6.6,13.3-10.1"/>
              <path class="st382" d="M31,28.8c2.4-.5,4.1.4,6.3,3.8,1.1,1.7,2.8,4.2,4.5,6.8,2.8,4.2,10.1,8,17.9,3.3,8.5-5,10.2-6.7,13.3-10.1"/>
              <path class="st355" d="M31,28.8c2.4-.5,4.1.4,6.3,3.8,1.1,1.7,2.8,4.2,4.5,6.8,2.8,4.2,10.1,8,18,3.3,8.6-5.1,10.2-6.7,13.3-10.1"/>
              <path class="st407" d="M31,28.8c2.4-.5,4.1.4,6.3,3.8,1.1,1.7,2.8,4.2,4.5,6.8,2.9,4.2,10.1,8,18,3.2,8.7-5.2,10.2-6.7,13.3-10.1"/>
              <path class="st86" d="M31,28.8c2.4-.5,4.1.4,6.3,3.8,1.1,1.7,2.7,4.2,4.5,6.8,2.9,4.2,10.1,8,18,3.2,8.7-5.2,10.3-6.8,13.4-10.1"/>
              <path class="st124" d="M30.9,28.9c2.4-.5,4.1.4,6.3,3.8,1.1,1.7,2.7,4.2,4.5,6.8,2.9,4.2,10.1,8,18,3.2,8.8-5.3,10.3-6.8,13.4-10.1"/>
              <path class="st197" d="M30.9,28.9c2.4-.5,4.1.4,6.2,3.8,1.1,1.7,2.7,4.3,4.5,6.8,2.9,4.2,10.1,8,18,3.2,8.8-5.4,10.3-6.8,13.4-10.1"/>
              <path class="st245" d="M30.9,28.9c2.4-.5,4.1.4,6.2,3.9,1.1,1.7,2.7,4.3,4.5,6.8,2.9,4.2,10.1,8,18,3.1,8.9-5.5,10.3-6.9,13.4-10.1"/>
              <path class="st457" d="M30.9,28.9c2.4-.5,4.1.4,6.2,3.9,1.1,1.7,2.7,4.3,4.5,6.8,2.9,4.2,10.1,8,18,3.1,9-5.5,10.4-7,13.4-10.1"/>
              <path class="st336" d="M30.9,29c2.4-.5,4.1.4,6.2,3.9,1.1,1.7,2.7,4.3,4.5,6.8,3,4.2,10.2,8,18.1,3.1,9-5.6,10.4-7,13.4-10.1"/>
              <path class="st62" d="M30.9,29c2.4-.5,4.1.4,6.2,3.9,1.1,1.7,2.7,4.3,4.5,6.8,3,4.2,10.2,8,18.1,3.1,9.1-5.6,10.4-7,13.5-10.1"/>
              <path class="st139" d="M30.9,29c2.4-.5,4.1.4,6.2,3.9,1,1.7,2.7,4.3,4.5,6.9,3,4.2,10.2,8,18.1,3,9.2-5.7,10.5-7,13.5-10.1"/>
              <path class="st26" d="M30.8,29c2.4-.5,4.1.4,6.2,3.9,1,1.7,2.7,4.3,4.5,6.9,3,4.3,10.2,8,18.1,3,9.2-5.8,10.5-7.1,13.5-10.1"/>
              <path class="st196" d="M30.8,29c2.4-.5,4.1.3,6.2,3.9,1,1.7,2.7,4.3,4.5,6.9,3,4.3,10.2,8,18.1,3,9.3-5.8,10.5-7.1,13.5-10.1"/>
              <path class="st328" d="M30.8,29c2.5-.5,4.1.3,6.2,3.9,1,1.7,2.7,4.3,4.5,6.9,3,4.3,10.2,8,18.1,2.9,9.3-5.9,10.5-7.2,13.5-10.2"/>
              <path class="st97" d="M30.8,29.1c2.5-.5,4.1.3,6.2,4,1,1.7,2.6,4.3,4.5,6.9,3.1,4.3,10.2,8,18.2,2.9,9.4-6,10.6-7.2,13.6-10.2"/>
              <path class="st271" d="M30.8,29.1c2.5-.5,4.1.3,6.2,3.9,1,1.7,2.6,4.3,4.5,6.9,3.1,4.3,10.2,8,18.2,2.9,9.5-6.1,10.6-7.2,13.6-10.2"/>
              <path class="st247" d="M30.8,29.1c2.5-.5,4.1.3,6.2,3.9,1,1.7,2.6,4.3,4.5,6.9,3.1,4.3,10.2,8,18.2,2.8,9.6-6.1,10.6-7.3,13.6-10.2"/>
              <path class="st173" d="M30.7,29.1c2.5-.5,4.1.3,6.2,4,1,1.7,2.6,4.3,4.5,7,3.1,4.3,10.2,8,18.2,2.8,9.6-6.2,10.6-7.3,13.6-10.2"/>
              <path class="st59" d="M30.7,29.2c2.5-.5,4.1.3,6.2,4,1,1.7,2.6,4.4,4.5,7,3.1,4.3,10.2,8,18.2,2.8,9.7-6.2,10.6-7.3,13.6-10.2"/>
              <path class="st310" d="M30.7,29.2c2.5-.5,4.1.3,6.1,4,1,1.7,2.6,4.4,4.5,7,3.1,4.3,10.2,8,18.2,2.8,9.7-6.3,10.7-7.4,13.6-10.2"/>
              <path class="st437" d="M30.7,29.2c2.5-.5,4.1.3,6.1,4,1,1.7,2.6,4.4,4.5,7,3.2,4.3,10.2,8,18.2,2.8,9.8-6.4,10.7-7.4,13.7-10.2"/>
              <path class="st360" d="M30.7,29.2c2.5-.5,4.1.3,6.2,4,1,1.7,2.6,4.4,4.5,7,3.2,4.3,10.2,8,18.2,2.7,9.8-6.5,10.7-7.5,13.7-10.2"/>
              <path class="st193" d="M30.6,29.3c2.5-.5,4.1.3,6.1,4,1,1.7,2.6,4.4,4.5,7,3.2,4.3,10.3,8,18.3,2.7,9.9-6.5,10.7-7.5,13.7-10.2"/>
              <path class="st117" d="M30.6,29.3c2.5-.5,4.1.2,6.1,4,1,1.7,2.6,4.4,4.5,7,3.2,4.3,10.3,8,18.3,2.7,10-6.6,10.8-7.6,13.7-10.2"/>
              <path class="st426" d="M30.6,29.3c2.6-.5,4.1.2,6.1,4,1,1.7,2.6,4.4,4.5,7,3.2,4.3,10.3,8,18.3,2.6,10-6.7,10.8-7.6,13.7-10.2"/>
              <path class="st456" d="M30.6,29.3c2.6-.5,4.1.2,6.1,4.1,1,1.7,2.5,4.4,4.5,7,3.2,4.3,10.3,8,18.3,2.6,10.1-6.7,10.8-7.6,13.7-10.2"/>
              <path class="st408" d="M30.6,29.4c2.6-.5,4.1.2,6.1,4.1,1,1.7,2.5,4.4,4.5,7,3.2,4.3,10.3,8,18.3,2.6,10.2-6.8,10.9-7.7,13.7-10.2"/>
              <path class="st322" d="M30.6,29.4c2.6-.5,4.1.2,6.1,4.1.9,1.7,2.5,4.4,4.5,7,3.2,4.3,10.3,8,18.3,2.5,10.2-6.9,10.9-7.7,13.8-10.2"/>
              <path class="st149" d="M30.5,29.4c2.6-.5,4.1.2,6.1,4.1.9,1.8,2.5,4.4,4.5,7,3.3,4.3,10.3,7.9,18.4,2.5,10.3-7,10.9-7.7,13.8-10.2"/>
              <path class="st369" d="M30.5,29.4c2.6-.5,4.1.2,6.1,4.1.9,1.8,2.5,4.4,4.5,7,3.3,4.3,10.3,7.9,18.4,2.5,10.3-7,10.9-7.8,13.8-10.2"/>
              <path class="st4" d="M30.5,29.4c2.6-.5,4.1.2,6.1,4.1.9,1.8,2.5,4.5,4.5,7,3.3,4.3,10.3,7.9,18.4,2.5,10.4-7.1,11-7.8,13.8-10.2"/>
              <path class="st373" d="M30.5,29.4c2.6-.5,4.1.2,6.1,4.1.9,1.8,2.5,4.5,4.5,7,3.3,4.3,10.3,7.9,18.4,2.4,10.5-7.2,11-7.9,13.8-10.2"/>
              <path class="st463" d="M30.5,29.5c2.6-.5,4.1.2,6.1,4.1.9,1.8,2.5,4.5,4.5,7,3.3,4.4,10.3,7.9,18.4,2.4,10.5-7.2,11-7.9,13.8-10.2"/>
              <path class="st425" d="M30.5,29.5c2.6-.5,4.1.1,6.1,4.2.9,1.8,2.5,4.5,4.5,7.1,3.4,4.4,10.4,7.9,18.4,2.4,10.6-7.3,11-7.9,13.9-10.2"/>
              <path class="st198" d="M30.5,29.5c2.6-.5,4.1.1,6.1,4.2.9,1.8,2.5,4.5,4.5,7.1,3.4,4.4,10.4,7.9,18.5,2.4,10.6-7.4,11-8,13.9-10.2"/>
              <path class="st276" d="M30.5,29.5c2.7-.5,4.1.1,6.1,4.2.9,1.8,2.5,4.5,4.5,7.1,3.4,4.4,10.4,7.9,18.5,2.3,10.7-7.4,11.1-8,13.9-10.2"/>
              <path class="st140" d="M30.4,29.6c2.7-.5,4.1.1,6.1,4.2.9,1.8,2.5,4.5,4.5,7.1,3.4,4.4,10.4,7.9,18.5,2.3,10.8-7.5,11.1-8,13.9-10.2"/>
              <path class="st354" d="M30.4,29.6c2.7-.5,4.1.1,6.1,4.2.9,1.8,2.5,4.5,4.5,7.1,3.4,4.4,10.4,7.9,18.5,2.3,10.8-7.6,11.1-8.1,13.9-10.2"/>
              <path class="st87" d="M30.4,29.6c2.7-.5,4.1.1,6,4.2.9,1.8,2.5,4.5,4.5,7.1,3.4,4.4,10.4,7.9,18.5,2.2,10.9-7.7,11.1-8.1,13.9-10.2"/>
              <path class="st378" d="M30.4,29.6c2.7-.5,4.1.1,6,4.2.9,1.8,2.5,4.5,4.5,7.1,3.5,4.4,10.4,7.9,18.5,2.2,11-7.7,11.2-8.2,13.9-10.2"/>
              <path class="st300" d="M30.4,29.6c2.7-.5,4.1,0,6,4.2.8,1.8,2.4,4.5,4.5,7.1,3.5,4.4,10.4,7.9,18.5,2.2,11-7.8,11.2-8.2,13.9-10.2"/>
              <path class="st251" d="M30.3,29.7c2.7-.5,4.1,0,6,4.2.8,1.8,2.4,4.5,4.5,7.1,3.5,4.4,10.4,7.9,18.5,2.1,11.1-7.9,11.2-8.2,14-10.2"/>
              <path class="st54" d="M30.3,29.7c2.7-.6,4.1,0,6,4.2.8,1.8,2.4,4.6,4.5,7.1,3.5,4.4,10.4,7.9,18.6,2.1,11.1-7.9,11.2-8.3,14-10.2"/>
              <path class="st393" d="M30.3,29.7c2.7-.6,4.1,0,6,4.2.8,1.8,2.4,4.6,4.5,7.1,3.5,4.4,10.4,7.9,18.6,2.1,11.2-8,11.3-8.3,14-10.2"/>
              <path class="st24" d="M30.3,29.8c2.7-.6,4.1,0,6,4.3.8,1.8,2.4,4.6,4.5,7.2,3.5,4.4,10.4,7.9,18.6,2,11.3-8.1,11.3-8.3,14.1-10.2"/>
              <path class="st333" d="M30.3,29.8c2.7-.6,4.1,0,6,4.3.8,1.8,2.4,4.6,4.5,7.2,3.5,4.4,10.4,7.9,18.6,2,11.3-8.1,11.3-8.4,14.1-10.2"/>
              <path class="st415" d="M30.3,29.8c2.8-.6,4.1,0,6,4.3.8,1.8,2.4,4.6,4.5,7.2,3.5,4.4,10.5,7.9,18.6,2,11.4-8.2,11.3-8.4,14.1-10.2"/>
              <path class="st311" d="M30.2,29.8c2.8-.6,4.1,0,6,4.3.8,1.8,2.4,4.6,4.5,7.2,3.6,4.4,10.5,7.9,18.6,2,11.5-8.3,11.4-8.5,14.1-10.3"/>
              <path class="st231" d="M30.2,29.8c2.8-.6,4.1,0,6,4.3.8,1.8,2.4,4.6,4.5,7.2,3.6,4.4,10.5,7.9,18.7,2,11.5-8.4,11.4-8.5,14.1-10.3"/>
              <path class="st83" d="M30.2,29.9c2.8-.6,4.1,0,6,4.3.8,1.8,2.4,4.6,4.5,7.2,3.6,4.4,10.5,7.9,18.7,1.9,11.6-8.5,11.4-8.5,14.1-10.3"/>
              <path class="st208" d="M30.2,29.9c2.8-.6,4.1,0,6,4.4.8,1.8,2.4,4.6,4.5,7.2,3.6,4.4,10.5,7.9,18.7,1.9,11.6-8.5,11.4-8.6,14.1-10.3"/>
              <path class="st221" d="M30.2,29.9c2.8-.6,4.1,0,5.9,4.4.8,1.8,2.4,4.6,4.5,7.2,3.6,4.4,10.5,7.9,18.7,1.9,11.7-8.6,11.5-8.6,14.1-10.3"/>
              <path class="st256" d="M30.1,29.9c2.8-.6,4.1,0,5.9,4.4.8,1.8,2.3,4.6,4.5,7.2,3.6,4.4,10.5,7.9,18.7,1.8,11.7-8.7,11.5-8.7,14.2-10.3"/>
              <path class="st120" d="M30.1,29.9c2.8-.6,4.1,0,5.9,4.4.8,1.8,2.3,4.6,4.5,7.2,3.7,4.4,10.5,7.9,18.7,1.8,11.8-8.7,11.5-8.7,14.2-10.3"/>
              <path class="st165" d="M30.1,30c2.8-.6,4.1,0,5.9,4.4.7,1.8,2.3,4.6,4.5,7.2,3.7,4.5,10.5,7.9,18.8,1.8,11.8-8.8,11.5-8.7,14.2-10.3"/>
              <path class="st67" d="M30.1,30c2.8-.6,4.1,0,5.9,4.4.7,1.8,2.3,4.7,4.5,7.2,3.7,4.5,10.5,7.9,18.8,1.7,11.9-8.9,11.6-8.8,14.2-10.3"/>
              <path class="st243" d="M30.1,30c2.8-.6,4.1,0,5.9,4.4.7,1.8,2.3,4.7,4.5,7.2,3.7,4.5,10.5,7.9,18.8,1.7,12-8.9,11.6-8.8,14.2-10.3"/>
              <path class="st406" d="M30.1,30c2.9-.6,4.1,0,5.9,4.4.7,1.8,2.3,4.7,4.5,7.2,3.7,4.5,10.5,7.9,18.8,1.7,12-9,11.6-8.8,14.3-10.3"/>
              <path class="st465" d="M30,30c2.8-.6,4.1,0,5.9,4.4.7,1.8,2.3,4.7,4.5,7.2,3.8,4.5,10.5,7.9,18.8,1.7,12.1-9.1,11.6-8.9,14.3-10.3"/>
              <path class="st451" d="M30,30.1c2.8-.6,4.1,0,5.9,4.4.7,1.8,2.3,4.7,4.5,7.2,3.8,4.5,10.5,7.9,18.8,1.7,12.2-9.2,11.7-8.9,14.3-10.3"/>
              <path class="st395" d="M30,30.1c2.8-.6,4.1,0,5.9,4.4.7,1.8,2.3,4.7,4.5,7.3,3.8,4.5,10.6,7.9,18.8,1.6,12.2-9.2,11.7-9,14.3-10.3"/>
              <path class="st178" d="M30,30.1c2.9-.6,4.1,0,5.9,4.5.7,1.8,2.3,4.7,4.5,7.3,3.8,4.5,10.6,7.9,18.8,1.6,12.3-9.3,11.7-9,14.3-10.3"/>
              <path class="st141" d="M30,30.1c2.9-.6,4.1,0,5.9,4.5.7,1.8,2.3,4.7,4.5,7.3,3.8,4.5,10.6,7.9,18.9,1.6,12.3-9.4,11.8-9,14.3-10.3"/>
              <path class="st401" d="M30,30.2c2.9-.6,4.1-.1,5.9,4.5.7,1.8,2.3,4.7,4.5,7.3,3.8,4.5,10.6,7.9,18.9,1.5,12.4-9.5,11.8-9.1,14.3-10.3"/>
              <path class="st110" d="M30,30.2c2.9-.6,4.1-.1,5.9,4.5.7,1.8,2.2,4.7,4.5,7.3,3.9,4.5,10.6,7.9,18.9,1.5,12.4-9.5,11.8-9.1,14.3-10.3"/>
              <path class="st397" d="M30,30.2c2.9-.6,4.1-.1,5.8,4.5.7,1.8,2.2,4.7,4.5,7.3,3.9,4.5,10.6,7.9,18.9,1.5,12.5-9.6,11.8-9.2,14.4-10.3"/>
              <path class="st43" d="M29.9,30.2c2.9-.6,4.1-.1,5.8,4.5.7,1.8,2.2,4.7,4.5,7.3,3.9,4.5,10.6,7.9,18.9,1.4,12.6-9.7,11.8-9.2,14.4-10.3"/>
              <path class="st31" d="M29.9,30.3c2.9-.6,4.1-.1,5.8,4.5.7,1.8,2.2,4.7,4.5,7.3,3.9,4.5,10.6,7.9,18.9,1.4,12.6-9.8,11.9-9.2,14.4-10.3"/>
              <path class="st467" d="M29.9,30.3c2.9-.6,4.1-.1,5.8,4.5.7,1.8,2.2,4.7,4.5,7.3,3.9,4.5,10.6,7.9,18.9,1.4,12.7-9.8,11.9-9.3,14.4-10.3"/>
              <path class="st98" d="M29.9,30.3c2.9-.6,4.1-.2,5.8,4.6.6,1.8,2.2,4.7,4.5,7.3,3.9,4.5,10.6,7.9,19,1.3,12.7-9.9,11.9-9.3,14.4-10.3"/>
              <path class="st464" d="M29.9,30.3c2.9-.6,4.1-.2,5.8,4.6.6,1.8,2.2,4.7,4.5,7.3,4,4.5,10.6,7.9,19,1.3,12.8-10,11.9-9.3,14.5-10.3"/>
              <path class="st299" d="M29.8,30.4c2.9-.6,4.1-.2,5.8,4.6.6,1.8,2.2,4.7,4.5,7.4,4,4.5,10.6,7.9,19,1.3,12.8-10,12-9.4,14.5-10.3"/>
              <path class="st409" d="M29.8,30.4c3-.6,4.1-.2,5.8,4.6.6,1.8,2.2,4.8,4.5,7.4,4,4.5,10.6,7.9,19,1.3,12.9-10.1,12-9.4,14.5-10.3"/>
              <path class="st73" d="M29.8,30.4c3-.6,4.1-.2,5.8,4.6.6,1.8,2.2,4.8,4.5,7.4,4,4.5,10.6,7.9,19,1.2,12.9-10.2,12-9.5,14.5-10.4"/>
              <path class="st1" d="M29.8,30.4c3-.6,4.1-.2,5.8,4.6.6,1.8,2.2,4.8,4.5,7.4,4,4.5,10.6,7.9,19,1.2,13-10.3,12-9.5,14.5-10.4"/>
              <path class="st230" d="M29.8,30.4c3-.6,4.1-.2,5.8,4.6.6,1.8,2.1,4.8,4.5,7.4,4,4.5,10.6,7.9,19.1,1.2,13.1-10.3,12.1-9.5,14.5-10.4"/>
              <path class="st411" d="M29.8,30.5c3-.6,4.1-.2,5.8,4.6.6,1.8,2.1,4.8,4.5,7.4,4,4.6,10.6,7.8,19.1,1.2,13.1-10.4,12.1-9.6,14.6-10.4"/>
              <path class="st201" d="M29.7,30.5c3-.6,4.1-.2,5.8,4.7.6,1.8,2.1,4.8,4.5,7.4,4.1,4.6,10.6,7.8,19.1,1.1,13.2-10.5,12.1-9.6,14.6-10.4"/>
              <path class="st22" d="M29.7,30.5c3-.6,4.1-.2,5.8,4.6.6,1.8,2.1,4.8,4.5,7.4,4.1,4.6,10.6,7.8,19.1,1.1,13.2-10.6,12.2-9.6,14.6-10.4"/>
              <path class="st351" d="M29.7,30.5c3-.6,4.1-.3,5.8,4.6s10.3,19.2,23.6,8.5,12.2-9.7,14.6-10.4"/>
              <path class="st255" d="M29.7,30.5c3-.6,4.1-.2,5.7,4.7,1.7,5,10.3,19.1,23.5,8.6,13.3-10.5,12.3-9.8,14.8-10.5"/>
              <path class="st288" d="M29.7,30.6c2.9-.6,4-.1,5.7,4.7,1.6,4.8,10.3,19,23.4,8.6,13.3-10.4,12.5-10,15-10.6"/>
              <path class="st320" d="M29.6,30.6c2.9-.6,4-.1,5.7,4.7s10.2,18.9,23.3,8.7,12.7-10.1,15.2-10.6"/>
              <path class="st103" d="M29.6,30.6c2.8-.6,3.9,0,5.6,4.7,1.8,5,10.2,18.8,23.2,8.8s12.8-10.3,15.3-10.7"/>
              <path class="st66" d="M29.6,30.7c2.8-.6,3.9,0,5.6,4.7,1.8,5,10.2,18.7,23.1,8.8s13-10.4,15.5-10.8"/>
              <path class="st443" d="M29.6,30.7c2.7-.6,3.8,0,5.5,4.8,1.8,5.1,10.2,18.6,23,8.9s13.2-10.6,15.7-10.9"/>
              <path class="st49" d="M29.6,30.7c2.7-.6,3.8,0,5.5,4.8,1.9,5.1,10.2,18.5,22.9,9,12.8-9.5,13.3-10.7,15.9-11"/>
              <path class="st207" d="M29.5,30.7c2.6-.6,3.7.1,5.4,4.8,1.9,5.1,10.2,18.4,22.8,9.1s13.5-10.9,16.1-11.1"/>
              <path class="st431" d="M29.5,30.8c2.6-.6,3.7.2,5.4,4.8,1.9,5.2,10.2,18.3,22.7,9.1s13.7-11,16.2-11.1"/>
              <path class="st122" d="M29.5,30.8c2.5-.6,3.6.2,5.4,4.8,2,5.2,10.1,18.2,22.6,9.2,13.2-9.5,13.8-11.1,16.4-11.2"/>
              <path class="st281" d="M29.5,30.8c2.5-.5,3.6.3,5.3,4.8,2,5.2,10.1,18.1,22.5,9.3,13.2-9.4,14-11.3,16.6-11.3"/>
              <path class="st212" d="M29.4,30.9c2.5-.5,3.5.3,5.3,4.9,2,5.2,10.1,18.1,22.4,9.3,13.2-9.3,14.2-11.5,16.8-11.4"/>
              <path class="st441" d="M29.4,30.9c2.4-.5,3.5.4,5.2,4.9,2.1,5.3,10.1,18,22.3,9.4,13.1-9.2,14.3-11.6,17-11.5"/>
              <path class="st91" d="M29.4,30.9c2.4-.5,3.4.4,5.2,4.9,2.1,5.3,10.1,17.9,22.2,9.5,13.1-9.1,14.5-11.8,17.1-11.6"/>
              <path class="st372" d="M29.4,30.9c2.3-.5,3.4.5,5.2,4.9,2.1,5.3,10.1,17.8,22.1,9.5,13.1-9,14.7-11.9,17.3-11.7"/>
              <path class="st380" d="M29.4,30.9c2.3-.5,3.3.5,5.1,4.9,2.2,5.3,10.1,17.7,22,9.6,13.1-8.9,14.8-12,17.5-11.8"/>
              <path class="st273" d="M29.4,31c2.2-.5,3.3.6,5.1,4.9,2.2,5.4,10,17.6,21.9,9.7,13.1-8.8,15-12.2,17.7-11.8"/>
              <path class="st205" d="M29.3,31c2.2-.5,3.2.6,5,5,2.2,5.4,10,17.5,21.9,9.7,13.1-8.6,15.2-12.3,17.9-11.9"/>
              <path class="st115" d="M29.3,31c2.1-.5,3.2.7,5,5,2.3,5.4,10,17.4,21.8,9.8,13.1-8.5,15.4-12.5,18-12"/>
              <path class="st248" d="M29.2,31c2.1-.5,3.2.7,5,5,2.3,5.4,10,17.4,21.7,9.9,13.1-8.4,15.5-12.6,18.2-12.1"/>
              <path class="st170" d="M29.2,31.1c2-.5,3.1.8,4.9,5,2.4,5.5,10,17.3,21.6,10,13.1-8.3,15.7-12.8,18.4-12.2"/>
              <path class="st168" d="M29.2,31.1c2-.5,3.1.8,4.9,5,2.4,5.5,10,17.2,21.5,10,13.1-8.2,15.8-12.9,18.6-12.3"/>
              <path class="st410" d="M29.2,31.1c1.9-.5,3,.9,4.8,5.1,2.4,5.5,10,17.1,21.4,10.1,13.1-8,16-13.1,18.8-12.3"/>
              <path class="st218" d="M29.2,31.1c1.9-.5,3,.9,4.8,5.1,2.5,5.5,10,17,21.3,10.2,13-7.9,16.2-13.2,18.9-12.4"/>
              <path class="st182" d="M29.2,31.2c1.8-.4,2.9,1,4.8,5.1,2.5,5.5,10,17,21.2,10.2,13-7.8,16.4-13.3,19.1-12.5"/>
              <path class="st65" d="M29.1,31.2c1.8-.4,2.9,1,4.7,5.1,2.5,5.6,10,16.9,21.1,10.3,13-7.7,16.5-13.5,19.3-12.6"/>
              <path class="st160" d="M29.1,31.2c1.7-.4,2.9,1.1,4.7,5.1,2.6,5.6,10,16.8,21,10.4,13-7.6,16.7-13.6,19.5-12.7"/>
              <path class="st402" d="M29.1,31.2c1.7-.4,2.8,1.1,4.6,5.1,2.6,5.6,10,16.7,20.9,10.4,13-7.5,16.9-13.8,19.7-12.8"/>
              <path class="st60" d="M29.1,31.3c1.6-.4,2.8,1.2,4.6,5.1,2.7,5.7,10,16.6,20.8,10.5,13-7.3,17.1-13.9,19.8-12.9"/>
              <path class="st184" d="M29,31.3c1.6-.4,2.7,1.2,4.6,5.1,2.7,5.7,10,16.5,20.7,10.6,13-7.2,17.2-14.1,20-12.9"/>
              <path class="st78" d="M29,31.3c1.5-.4,2.7,1.3,4.5,5.2,2.7,5.7,10,16.5,20.6,10.7,13-7.1,17.4-14.2,20.2-13"/>
              <path class="st47" d="M29,31.4c1.5-.4,2.6,1.3,4.5,5.2,2.8,5.7,10,16.4,20.5,10.7,13-7,17.5-14.4,20.4-13.1"/>
              <path class="st260" d="M29,31.4c1.4-.4,2.6,1.4,4.4,5.2,2.8,5.8,10,16.3,20.4,10.8,13-6.8,17.7-14.5,20.6-13.2"/>
              <path class="st51" d="M29,31.4c1.4-.4,2.5,1.4,4.4,5.2,2.8,5.8,10,16.2,20.3,10.8,13-6.7,17.9-14.7,20.8-13.3"/>
              <path class="st445" d="M29,31.4c1.4-.3,2.5,1.5,4.4,5.2,2.9,5.8,10,16.2,20.2,10.9,13-6.6,18.1-14.8,20.9-13.4"/>
              <path class="st202" d="M28.9,31.5c1.3-.3,2.5,1.5,4.3,5.3,2.9,5.8,10,16.1,20.1,11,13-6.5,18.2-15,21.1-13.5"/>
              <path class="st364" d="M28.9,31.5c1.2-.3,2.4,1.6,4.3,5.3,3,5.8,10,16,20,11,13-6.4,18.4-15.1,21.3-13.6"/>
              <path class="st287" d="M28.9,31.5c1.2-.3,2.4,1.6,4.2,5.3,3,5.8,9.9,15.9,19.9,11.1,13-6.2,18.5-15.2,21.4-13.6"/>
              <path class="st432" d="M28.9,31.5c1.2-.3,2.3,1.7,4.2,5.3,3.1,5.9,9.9,15.9,19.8,11.2,13-6.1,18.7-15.4,21.6-13.7"/>
              <path class="st468" d="M28.8,31.5c1.1-.3,2.3,1.7,4.2,5.3,3.1,5.9,9.9,15.8,19.7,11.3,13-6,18.9-15.5,21.8-13.8"/>
              <path class="st466" d="M28.8,31.6c1.1-.3,2.2,1.7,4.1,5.3,3.2,5.9,9.9,15.7,19.7,11.3,13-5.8,19.1-15.7,22-13.9"/>
              <path class="st294" d="M28.8,31.6c1-.3,2.2,1.8,4.1,5.4,3.2,5.9,9.9,15.6,19.5,11.4,13-5.7,19.2-15.9,22.2-14"/>
              <path class="st450" d="M28.8,31.6c1-.3,2.1,1.9,4,5.4,3.2,6,9.9,15.5,19.5,11.5,13-5.6,19.4-16,22.4-14"/>
              <path class="st142" d="M28.7,31.7c.9-.3,2.1,1.9,4,5.4,3.3,6,9.9,15.5,19.3,11.5,13-5.5,19.5-16.1,22.5-14.1"/>
              <path class="st386" d="M28.7,31.7c.9-.2,2,2,4,5.4,3.3,6,9.9,15.4,19.2,11.6,13-5.3,19.7-16.3,22.7-14.2"/>
              <path class="st262" d="M28.7,31.7c.8-.2,2,2,3.9,5.4,3.4,6,9.9,15.3,19.2,11.7,13-5.2,19.9-16.4,22.9-14.3"/>
              <path class="st69" d="M28.7,31.7c.8-.2,2,2,3.9,5.4,3.4,6,9.9,15.3,19.1,11.8,13-5,20.1-16.6,23.1-14.4"/>
              <path class="st424" d="M28.6,31.8c.7-.2,1.9,2.1,3.9,5.4,3.5,6.1,9.9,15.2,19,11.8,13-4.9,20.2-16.7,23.3-14.5"/>
              <path class="st334" d="M28.6,31.8c.7-.2,1.9,2.1,3.8,5.5,3.5,6.1,9.9,15.2,18.9,11.9,13-4.7,20.4-16.9,23.4-14.6"/>
              <path class="st217" d="M28.6,31.8c.6-.2,1.8,2.2,3.8,5.5,3.5,6.1,9.9,15.1,18.8,11.9,13-4.6,20.6-17,23.6-14.7"/>
              <path class="st199" d="M28.6,31.9c.6-.2,1.8,2.2,3.7,5.5,3.6,6.1,9.9,15,18.7,12,13-4.5,20.8-17.2,23.8-14.8"/>
              <path class="st324" d="M28.5,31.9c.5-.2,1.8,2.3,3.7,5.5,3.6,6.1,9.9,15,18.6,12.1,13-4.3,20.9-17.3,24-14.8"/>
              <path class="st321" d="M28.5,31.9c1.5-.5,9.1,21.9,22.1,17.7s21.1-17.4,24.2-14.9"/>
            </g>
          </g>
        </g>
      </g>
    </g>
  </g>
</svg>